<svg id="svg" version="1.1" xmlns="http://www.w3.org/2000/svg" xmlns:xlink="http://www.w3.org/1999/xlink" width="100" height="25" viewBox="0, 0, 400,100"><g id="svgg"><path id="path0" d="M105.583 7.090 C 104.787 7.301,104.311 7.458,102.105 8.238 C 101.484 8.457,101.032 8.736,100.867 9.000 C 100.725 9.229,100.250 9.792,99.812 10.250 C 98.051 12.091,97.826 15.497,99.353 17.168 C 99.709 17.557,100.000 17.970,100.000 18.085 C 100.000 18.308,101.036 19.167,101.305 19.167 C 101.393 19.167,101.700 19.434,101.986 19.760 C 102.817 20.705,105.154 21.091,108.417 20.821 C 109.333 20.745,110.222 20.679,110.392 20.675 C 110.561 20.670,110.949 20.418,111.254 20.113 C 111.558 19.809,112.094 19.347,112.445 19.088 C 114.756 17.381,115.383 15.876,115.000 12.956 C 114.750 11.053,114.572 10.603,113.890 10.153 C 113.554 9.931,113.148 9.500,112.986 9.194 C 112.825 8.888,112.663 8.608,112.627 8.572 C 112.516 8.461,108.805 7.324,107.750 7.078 C 106.585 6.807,106.659 6.806,105.583 7.090 M134.667 13.617 C 133.172 13.779,131.697 14.358,131.487 14.865 C 131.375 15.135,130.931 15.653,130.500 16.016 C 129.036 17.251,129.144 14.668,129.200 47.167 C 129.242 71.178,129.287 75.817,129.481 76.167 C 129.904 76.927,131.546 78.693,131.985 78.858 C 132.222 78.947,132.659 79.254,132.955 79.540 C 133.765 80.321,133.330 80.308,159.333 80.320 C 186.143 80.333,187.076 80.306,189.734 79.421 C 190.659 79.113,191.792 78.807,192.250 78.742 C 193.502 78.563,194.844 78.017,195.523 77.410 C 195.856 77.112,196.366 76.816,196.655 76.753 C 196.944 76.689,197.548 76.288,197.998 75.860 C 198.448 75.433,199.101 74.813,199.450 74.483 C 200.778 73.223,201.833 72.023,201.833 71.773 C 201.833 71.630,202.131 71.227,202.494 70.878 C 202.857 70.528,203.263 69.934,203.397 69.557 C 203.644 68.854,204.380 67.596,204.772 67.205 C 204.994 66.982,205.043 66.827,205.663 64.367 C 205.854 63.607,206.201 62.557,206.434 62.034 C 207.623 59.363,207.612 51.070,206.416 48.667 C 206.211 48.254,205.911 47.317,205.749 46.583 C 205.340 44.728,204.879 43.490,204.417 43.000 C 204.200 42.771,203.869 42.168,203.680 41.661 C 203.489 41.148,202.958 40.298,202.483 39.745 C 202.014 39.198,201.496 38.460,201.333 38.105 C 201.149 37.706,200.796 37.325,200.408 37.105 C 200.055 36.906,199.638 36.476,199.457 36.126 C 199.234 35.693,198.917 35.405,198.424 35.187 C 198.034 35.014,197.511 34.606,197.262 34.281 C 196.933 33.849,196.463 33.547,195.530 33.167 C 194.765 32.855,194.073 32.443,193.810 32.143 C 193.302 31.562,192.801 31.421,189.917 31.047 C 187.254 30.702,157.954 30.517,156.083 30.833 C 153.700 31.237,152.753 31.614,152.522 32.251 C 152.409 32.565,152.015 33.079,151.649 33.393 C 150.645 34.252,150.332 35.242,150.337 37.543 C 150.342 39.897,150.512 40.296,152.292 42.113 C 154.304 44.166,152.669 43.998,170.822 44.010 C 188.006 44.021,187.512 43.995,188.558 44.958 C 188.963 45.332,189.528 45.759,189.813 45.906 C 190.125 46.068,190.492 46.488,190.735 46.962 C 190.957 47.395,191.397 48.029,191.713 48.371 C 193.680 50.496,193.713 60.241,191.760 62.333 C 191.546 62.563,191.239 63.012,191.078 63.333 C 190.306 64.866,189.078 65.852,187.526 66.185 C 187.007 66.297,186.445 66.457,186.276 66.541 C 186.094 66.632,178.012 66.690,166.360 66.684 C 143.129 66.671,144.321 66.776,143.567 64.688 C 143.414 64.264,143.148 63.612,142.977 63.239 C 142.679 62.589,142.667 61.700,142.667 41.563 L 142.667 20.564 142.250 18.431 L 141.833 16.298 140.649 15.126 L 139.465 13.954 137.774 13.731 C 136.090 13.508,135.774 13.496,134.667 13.617 M104.558 29.575 C 104.270 29.700,103.970 29.915,103.892 30.051 C 103.814 30.188,103.366 30.588,102.897 30.941 C 99.973 33.141,100.167 31.384,100.167 55.715 C 100.167 78.078,100.137 77.448,101.273 78.734 C 101.627 79.135,102.044 79.648,102.199 79.875 C 102.413 80.188,102.995 80.456,104.616 80.988 L 106.750 81.688 107.667 81.433 C 111.624 80.336,112.762 79.290,113.246 76.308 C 113.601 74.116,113.628 36.581,113.275 34.750 C 112.960 33.113,112.390 31.871,111.819 31.576 C 111.562 31.443,110.900 30.958,110.347 30.498 C 109.794 30.038,109.148 29.588,108.910 29.498 C 108.260 29.250,105.179 29.305,104.558 29.575 M28.031 29.665 C 27.727 29.737,27.313 29.951,27.111 30.141 C 26.909 30.330,26.108 30.784,25.330 31.149 C 24.192 31.683,23.855 31.928,23.599 32.407 C 23.424 32.733,23.029 33.193,22.721 33.427 C 21.080 34.679,19.888 39.529,20.614 42.000 C 21.431 44.779,21.768 45.687,22.353 46.677 C 22.709 47.278,23.180 48.230,23.400 48.792 C 23.621 49.354,24.068 50.250,24.393 50.782 C 24.719 51.314,25.184 52.305,25.426 52.983 C 25.668 53.660,26.084 54.515,26.350 54.883 C 26.616 55.250,26.833 55.620,26.833 55.706 C 26.833 56.076,27.875 58.418,28.224 58.833 C 28.435 59.084,28.702 59.543,28.818 59.853 C 29.250 61.014,29.911 62.357,30.144 62.550 C 30.277 62.660,30.664 63.355,31.005 64.094 C 31.345 64.834,31.892 65.813,32.220 66.269 C 32.548 66.726,32.975 67.471,33.169 67.925 C 33.363 68.379,33.691 68.938,33.898 69.167 C 34.105 69.396,34.581 70.108,34.955 70.750 C 35.329 71.392,35.837 72.104,36.084 72.333 C 36.331 72.563,36.705 73.087,36.916 73.500 C 37.127 73.912,37.533 74.422,37.818 74.631 C 38.104 74.841,38.524 75.308,38.751 75.668 C 38.979 76.029,39.409 76.450,39.707 76.604 C 40.006 76.758,40.512 77.159,40.833 77.496 C 41.194 77.875,41.861 78.287,42.583 78.578 C 43.225 78.836,44.027 79.262,44.365 79.524 C 46.781 81.395,57.982 81.264,60.877 79.330 C 61.424 78.965,61.978 78.667,62.108 78.667 C 62.558 78.667,63.919 77.861,64.500 77.250 C 64.821 76.913,65.363 76.493,65.705 76.317 C 66.047 76.141,66.451 75.754,66.602 75.457 C 66.754 75.160,67.152 74.617,67.487 74.250 C 67.822 73.883,68.437 73.058,68.853 72.417 C 69.269 71.775,69.741 71.142,69.902 71.010 C 70.063 70.877,70.445 70.273,70.750 69.667 C 71.055 69.060,71.426 68.464,71.574 68.341 C 71.722 68.218,72.188 67.449,72.611 66.631 C 73.033 65.814,73.551 65.032,73.762 64.894 C 73.973 64.755,74.197 64.404,74.260 64.113 C 74.421 63.368,75.229 61.811,75.652 61.429 C 75.848 61.252,76.128 60.690,76.275 60.179 C 76.613 59.005,77.091 58.037,77.603 57.490 C 77.822 57.255,78.114 56.634,78.250 56.110 C 78.543 54.985,79.056 53.913,79.579 53.333 C 79.786 53.104,80.044 52.550,80.152 52.103 C 80.392 51.111,80.905 50.060,81.421 49.500 C 81.632 49.271,81.887 48.772,81.987 48.392 C 82.274 47.310,82.785 46.260,83.255 45.790 C 83.945 45.100,84.792 41.032,84.595 39.352 C 84.292 36.770,83.892 35.355,83.269 34.666 C 82.938 34.299,82.666 33.943,82.665 33.875 C 82.660 33.346,80.288 31.339,79.277 31.008 C 78.926 30.892,78.401 30.590,78.111 30.335 C 77.821 30.080,77.283 29.789,76.917 29.687 C 76.135 29.470,28.944 29.449,28.031 29.665 M241.417 30.775 C 237.083 30.930,233.800 31.452,233.320 32.063 C 233.150 32.279,232.352 32.735,231.547 33.076 C 230.502 33.519,229.932 33.875,229.553 34.318 C 229.262 34.660,228.737 35.070,228.387 35.229 C 228.003 35.404,227.645 35.731,227.486 36.051 C 227.340 36.344,226.936 36.778,226.587 37.016 C 226.239 37.253,225.841 37.666,225.704 37.932 C 225.566 38.199,225.168 38.729,224.819 39.112 C 224.470 39.494,223.910 40.357,223.575 41.028 C 223.240 41.700,222.755 42.475,222.496 42.750 C 222.148 43.120,221.935 43.639,221.675 44.750 C 221.292 46.380,220.782 47.872,220.409 48.448 C 219.451 49.927,219.642 60.636,220.661 62.656 C 220.939 63.207,221.348 64.371,221.569 65.243 C 221.855 66.368,222.170 67.133,222.653 67.872 C 223.027 68.445,223.451 69.270,223.596 69.705 C 223.761 70.201,224.043 70.627,224.355 70.849 C 224.628 71.043,225.027 71.480,225.241 71.818 C 225.583 72.361,226.597 73.425,228.932 75.693 C 229.307 76.057,229.982 76.527,230.432 76.737 C 230.882 76.947,231.400 77.289,231.583 77.496 C 232.010 77.977,232.298 78.086,234.917 78.750 C 236.108 79.053,237.496 79.452,238.000 79.637 C 239.704 80.263,242.377 80.333,264.448 80.333 C 287.981 80.333,286.354 80.415,287.772 79.170 C 288.102 78.880,288.637 78.517,288.961 78.363 C 291.320 77.243,291.155 71.168,288.728 69.746 C 288.326 69.510,287.885 69.145,287.746 68.935 C 287.094 67.940,288.400 67.991,262.250 67.939 C 238.215 67.892,239.760 67.974,238.269 66.669 C 237.760 66.223,237.191 65.811,237.005 65.752 C 236.820 65.693,236.468 65.293,236.224 64.864 C 235.980 64.435,235.538 63.821,235.243 63.500 C 234.611 62.814,234.534 62.584,233.758 59.069 C 233.033 55.783,233.033 55.824,233.746 52.473 C 234.488 48.985,234.585 48.659,235.085 47.980 C 235.313 47.670,235.631 47.195,235.791 46.924 C 235.952 46.653,236.308 46.218,236.583 45.958 C 239.334 43.356,236.440 43.621,263.250 43.510 L 285.917 43.417 286.522 43.000 C 286.855 42.771,287.651 42.283,288.290 41.917 C 290.550 40.621,291.280 38.078,290.371 34.674 C 290.056 33.495,288.329 31.454,287.482 31.261 C 287.263 31.210,286.746 31.079,286.333 30.969 C 285.654 30.787,245.884 30.616,241.417 30.775 M321.917 30.944 C 317.118 31.171,315.202 31.494,314.342 32.217 C 314.068 32.448,313.353 32.799,312.752 32.999 C 312.101 33.216,311.318 33.643,310.815 34.057 C 310.351 34.438,309.683 34.975,309.329 35.250 C 308.976 35.525,308.520 35.975,308.316 36.250 C 308.112 36.525,307.668 37.050,307.329 37.417 C 303.715 41.326,303.582 49.598,307.064 53.890 C 308.172 55.256,310.130 57.141,310.789 57.477 C 311.169 57.671,311.691 58.054,311.948 58.329 C 312.285 58.688,312.767 58.923,313.667 59.169 C 314.354 59.357,315.592 59.737,316.417 60.014 C 317.242 60.290,318.217 60.598,318.583 60.698 C 319.038 60.822,325.904 60.912,340.167 60.982 L 361.083 61.083 362.029 61.465 C 362.797 61.776,363.142 62.057,363.872 62.965 C 365.086 64.476,365.054 64.382,364.662 65.283 C 363.745 67.396,363.493 67.627,361.456 68.216 C 360.261 68.561,360.036 68.565,336.250 68.610 C 310.681 68.659,311.752 68.622,309.463 69.529 C 308.336 69.975,308.123 70.129,307.752 70.762 C 307.519 71.159,307.186 71.585,307.011 71.707 C 306.830 71.834,306.579 72.373,306.426 72.965 C 305.784 75.443,306.709 77.687,308.833 78.799 C 309.429 79.111,310.040 79.476,310.191 79.610 C 310.755 80.110,312.915 80.160,334.083 80.158 C 356.985 80.156,361.045 80.066,362.833 79.522 C 363.429 79.341,364.854 78.991,366.000 78.744 C 368.237 78.263,368.731 78.074,369.250 77.499 C 369.434 77.296,370.146 76.846,370.833 76.499 C 371.548 76.138,372.245 75.648,372.461 75.355 C 372.668 75.072,373.121 74.677,373.468 74.478 C 373.821 74.275,374.298 73.778,374.552 73.349 C 374.802 72.928,375.233 72.280,375.510 71.910 C 376.989 69.933,378.143 65.221,377.672 63.083 C 377.433 61.998,376.014 58.322,375.653 57.852 C 375.469 57.612,374.996 56.929,374.601 56.333 C 374.206 55.737,373.508 54.950,373.050 54.583 C 371.076 53.005,370.470 52.582,369.807 52.323 C 369.421 52.172,368.815 51.806,368.462 51.509 C 367.674 50.848,367.581 50.821,363.248 50.050 L 359.750 49.428 340.500 49.331 C 320.134 49.229,320.691 49.251,318.390 48.491 C 317.236 48.110,316.139 45.819,316.653 44.860 C 316.896 44.405,319.030 42.549,319.599 42.297 C 319.984 42.127,325.377 42.066,345.833 42.000 C 373.616 41.910,372.610 41.944,372.935 41.095 C 372.989 40.955,373.406 40.573,373.862 40.246 C 374.376 39.876,374.788 39.416,374.948 39.033 C 375.089 38.694,375.346 38.218,375.519 37.974 C 377.007 35.879,374.230 31.631,371.000 31.061 C 369.881 30.863,325.829 30.758,321.917 30.944 M64.676 40.879 C 64.900 41.042,65.477 41.437,65.957 41.759 C 67.845 43.020,68.180 45.987,66.674 48.123 C 66.387 48.531,65.962 49.477,65.730 50.224 C 65.499 50.972,65.061 51.958,64.759 52.417 C 64.456 52.875,64.002 53.813,63.751 54.500 C 63.499 55.188,63.093 56.012,62.848 56.333 C 62.603 56.654,62.191 57.404,61.931 58.000 C 61.672 58.596,61.211 59.346,60.907 59.667 C 60.602 59.987,60.206 60.587,60.027 61.000 C 59.690 61.773,58.855 62.835,57.833 63.789 C 57.512 64.089,56.987 64.589,56.667 64.900 C 55.165 66.357,51.631 66.743,49.462 65.687 C 48.510 65.223,46.070 62.823,45.288 61.581 C 44.942 61.032,44.417 60.230,44.121 59.798 C 42.767 57.821,41.932 56.299,41.581 55.167 C 41.510 54.938,41.284 54.525,41.078 54.250 C 40.705 53.750,39.667 51.506,39.667 51.198 C 39.667 51.109,39.300 50.331,38.853 49.470 C 36.966 45.842,37.089 42.622,39.149 41.690 C 39.482 41.540,39.978 41.259,40.252 41.065 C 40.526 40.872,40.862 40.670,41.000 40.617 C 41.728 40.334,64.269 40.583,64.676 40.879 M245.930 50.830 C 245.502 50.913,245.162 51.115,244.941 51.418 C 244.756 51.672,244.266 52.095,243.852 52.357 C 242.531 53.195,241.975 55.881,242.862 57.135 C 244.648 59.661,243.301 59.530,266.833 59.459 C 288.108 59.395,287.346 59.436,287.929 58.310 C 288.070 58.037,288.447 57.524,288.767 57.169 C 289.424 56.443,289.764 55.091,289.433 54.525 C 289.332 54.353,289.088 53.920,288.890 53.564 C 288.514 52.889,287.933 52.305,286.667 51.328 L 285.917 50.750 266.250 50.726 C 255.433 50.714,246.290 50.760,245.930 50.830 " stroke="none" fill="#fafafafa" fill-rule="evenodd"></path><path id="path1" d="M0.000 50.000 L 0.000 100.000 200.000 100.000 L 400.000 100.000 400.000 50.000 L 400.000 0.000 200.000 0.000 L 0.000 0.000 0.000 50.000 M110.750 5.782 C 111.117 5.978,111.503 6.282,111.609 6.458 C 111.714 6.633,112.259 6.944,112.818 7.148 C 113.629 7.444,113.894 7.632,114.126 8.082 C 114.286 8.392,114.679 8.822,115.000 9.037 C 115.429 9.325,115.672 9.678,115.920 10.373 C 116.105 10.893,116.479 11.551,116.752 11.836 C 117.201 12.304,117.254 12.478,117.307 13.651 C 117.369 15.003,117.401 14.892,116.359 16.917 C 116.170 17.283,115.866 17.936,115.684 18.367 C 115.438 18.948,115.189 19.234,114.718 19.474 C 114.369 19.652,113.830 20.114,113.520 20.500 C 112.875 21.302,112.358 21.558,110.832 21.830 C 110.197 21.943,109.487 22.203,109.112 22.460 C 108.158 23.113,105.957 23.116,104.700 22.465 C 104.221 22.217,103.365 21.930,102.797 21.827 C 101.530 21.597,100.973 21.322,99.981 20.436 C 99.558 20.059,98.908 19.507,98.537 19.211 C 97.852 18.664,97.494 17.900,97.234 16.431 C 97.171 16.072,96.938 15.511,96.716 15.184 C 96.248 14.494,96.292 13.426,96.838 12.250 C 97.008 11.883,97.200 11.358,97.264 11.083 C 97.488 10.125,97.974 9.384,98.562 9.105 C 98.919 8.935,99.257 8.592,99.445 8.208 C 99.691 7.708,99.945 7.505,100.750 7.167 C 101.300 6.936,101.969 6.540,102.236 6.287 C 103.323 5.259,109.127 4.914,110.750 5.782 M137.136 11.487 C 137.544 11.566,138.058 11.820,138.322 12.072 C 138.582 12.321,139.268 12.663,139.874 12.845 C 141.202 13.243,142.708 14.621,143.039 15.740 C 143.149 16.112,143.402 16.547,143.600 16.705 C 144.637 17.534,144.575 16.104,144.667 41.369 C 144.746 63.118,144.766 64.337,145.048 64.619 C 145.395 64.967,186.951 65.095,187.530 64.750 C 187.685 64.658,187.987 64.321,188.202 64.002 C 188.417 63.683,188.752 63.343,188.946 63.246 C 189.585 62.927,189.797 62.662,189.912 62.036 C 190.055 61.261,190.559 60.096,191.082 59.333 C 192.124 57.814,192.050 52.925,190.961 51.282 C 190.645 50.806,190.289 50.117,190.170 49.750 C 189.700 48.297,189.100 47.482,187.998 46.803 C 186.977 46.173,186.192 46.144,170.983 46.188 L 156.215 46.230 154.970 45.615 C 154.285 45.277,153.618 44.998,153.488 44.996 C 152.827 44.986,151.839 44.330,151.508 43.683 C 151.319 43.311,150.958 42.901,150.706 42.770 C 149.962 42.386,149.706 41.982,149.423 40.750 C 149.276 40.108,148.997 39.092,148.804 38.491 L 148.452 37.400 148.795 36.241 C 148.984 35.604,149.297 34.539,149.491 33.874 C 149.800 32.814,149.923 32.614,150.487 32.258 C 150.841 32.035,151.270 31.569,151.440 31.223 C 151.694 30.707,151.923 30.528,152.718 30.224 C 153.251 30.020,153.833 29.667,154.012 29.439 C 154.699 28.566,154.342 28.583,172.000 28.583 C 189.576 28.583,189.826 28.594,190.794 29.409 C 191.108 29.673,191.786 29.903,192.958 30.142 C 194.803 30.518,195.401 30.760,195.917 31.339 C 196.100 31.544,196.718 31.924,197.291 32.182 C 198.105 32.550,198.393 32.780,198.612 33.239 C 198.802 33.639,199.068 33.885,199.441 34.008 C 199.999 34.192,200.833 35.025,200.833 35.397 C 200.833 35.510,201.128 35.733,201.489 35.892 C 201.970 36.104,202.238 36.375,202.498 36.913 C 202.711 37.352,203.086 37.783,203.435 37.989 C 203.844 38.230,204.140 38.608,204.426 39.255 C 204.650 39.762,204.948 40.221,205.088 40.275 C 205.483 40.426,206.127 41.650,206.426 42.819 C 206.575 43.402,206.911 44.174,207.173 44.535 C 207.981 45.651,208.489 47.784,208.497 50.094 C 208.499 50.649,208.662 51.699,208.860 52.427 C 209.313 54.088,209.356 56.501,208.957 57.833 C 208.806 58.337,208.605 59.702,208.510 60.866 C 208.253 64.039,207.926 65.230,207.105 65.987 C 206.864 66.210,206.667 66.558,206.667 66.761 C 206.667 67.648,205.993 69.305,205.433 69.797 C 205.123 70.069,204.815 70.470,204.749 70.688 C 204.541 71.375,203.663 72.812,203.255 73.133 C 203.040 73.302,202.678 73.714,202.452 74.047 C 201.843 74.944,199.692 77.029,198.833 77.555 C 198.421 77.807,197.708 78.311,197.250 78.676 C 196.792 79.040,196.079 79.444,195.667 79.572 C 195.254 79.701,194.382 80.073,193.729 80.400 C 192.085 81.222,190.968 81.477,188.168 81.668 C 186.838 81.759,184.775 81.906,183.583 81.994 C 178.660 82.358,136.073 82.206,134.166 81.817 C 131.935 81.362,131.162 81.016,130.478 80.164 C 130.169 79.780,129.711 79.359,129.460 79.229 C 128.874 78.926,128.418 78.024,128.162 76.663 C 128.050 76.069,127.762 75.246,127.521 74.833 L 127.083 74.083 127.038 47.254 C 126.991 20.011,127.004 19.378,127.605 18.247 C 127.751 17.974,128.008 17.274,128.178 16.692 C 128.540 15.450,128.684 15.250,129.531 14.818 C 129.880 14.639,130.167 14.392,130.167 14.269 C 130.167 13.796,130.870 13.162,131.598 12.979 C 132.005 12.876,132.680 12.566,133.098 12.289 C 134.471 11.379,135.511 11.173,137.136 11.487 M109.876 28.327 C 111.002 28.568,111.618 28.923,111.917 29.501 C 112.058 29.774,112.474 30.150,112.841 30.337 C 113.373 30.608,113.595 30.873,113.929 31.628 C 114.160 32.150,114.566 32.790,114.832 33.049 C 115.682 33.881,115.676 33.715,115.628 56.000 C 115.579 78.553,115.638 77.134,114.707 78.333 C 114.529 78.563,114.172 79.223,113.915 79.800 C 113.541 80.639,113.304 80.934,112.741 81.264 C 112.352 81.492,111.771 81.926,111.450 82.230 C 109.557 84.015,103.932 83.947,102.102 82.117 C 101.880 81.895,101.432 81.549,101.106 81.347 C 100.217 80.798,99.711 80.101,99.348 78.925 C 99.168 78.342,98.772 77.426,98.469 76.891 L 97.917 75.917 97.917 55.667 L 97.917 35.417 98.608 33.917 C 98.988 33.092,99.387 32.137,99.495 31.794 C 99.603 31.452,99.919 31.002,100.197 30.794 C 100.476 30.587,101.103 30.036,101.590 29.572 C 103.167 28.068,106.402 27.582,109.876 28.327 M78.802 28.553 C 79.288 28.718,79.963 29.101,80.302 29.404 C 80.640 29.708,81.301 30.150,81.770 30.387 C 82.348 30.678,82.751 31.032,83.020 31.483 C 83.238 31.849,83.679 32.324,84.000 32.539 C 84.424 32.823,84.720 33.249,85.086 34.098 C 85.363 34.740,85.753 35.473,85.952 35.727 C 87.217 37.335,87.081 43.705,85.766 44.449 C 85.636 44.523,85.403 45.071,85.249 45.667 C 84.861 47.168,84.561 47.834,84.010 48.417 C 83.738 48.703,83.415 49.341,83.253 49.912 C 82.888 51.192,82.475 51.989,81.933 52.457 C 81.695 52.663,81.500 52.940,81.500 53.074 C 81.500 53.746,80.626 56.008,80.252 56.302 C 79.975 56.520,79.685 57.126,79.336 58.216 C 78.956 59.400,78.700 59.916,78.341 60.218 C 78.058 60.456,77.778 60.920,77.666 61.337 C 77.334 62.570,76.713 63.795,76.276 64.082 C 76.043 64.235,75.803 64.594,75.739 64.887 C 75.521 65.888,74.874 67.115,74.379 67.468 C 74.053 67.700,73.761 68.155,73.528 68.793 C 73.333 69.328,72.920 70.062,72.610 70.424 C 72.300 70.787,71.811 71.550,71.523 72.121 C 71.184 72.793,70.828 73.247,70.514 73.410 C 70.200 73.572,69.955 73.884,69.822 74.289 C 69.709 74.634,69.272 75.270,68.850 75.702 C 68.428 76.134,67.869 76.753,67.608 77.078 C 67.346 77.403,66.952 77.714,66.733 77.769 C 66.513 77.824,66.333 77.934,66.333 78.012 C 66.333 78.363,65.273 79.311,64.587 79.573 C 64.173 79.731,63.833 79.931,63.833 80.017 C 63.833 80.323,62.305 81.137,61.202 81.419 C 60.587 81.577,59.858 81.802,59.583 81.920 C 59.308 82.038,58.798 82.252,58.450 82.396 C 55.613 83.564,49.106 83.476,46.083 82.228 C 45.533 82.001,44.676 81.704,44.177 81.568 C 42.942 81.232,41.834 80.725,41.333 80.268 C 41.104 80.059,40.542 79.674,40.083 79.413 C 39.625 79.152,38.778 78.465,38.202 77.886 C 37.625 77.307,37.091 76.833,37.016 76.833 C 36.940 76.833,36.689 76.552,36.458 76.208 C 36.227 75.865,35.687 75.208,35.258 74.750 C 34.828 74.292,34.281 73.579,34.041 73.167 C 33.801 72.754,33.363 72.143,33.067 71.808 C 32.772 71.473,32.384 70.869,32.205 70.465 C 32.027 70.062,31.615 69.383,31.290 68.957 C 30.965 68.531,30.495 67.748,30.246 67.216 C 29.998 66.685,29.689 66.129,29.559 65.982 C 29.430 65.834,28.946 64.972,28.483 64.065 C 28.020 63.158,27.540 62.304,27.415 62.166 C 27.291 62.028,26.917 61.278,26.585 60.499 C 26.253 59.720,25.796 58.813,25.569 58.484 C 25.203 57.951,24.981 57.449,24.291 55.583 C 24.189 55.308,23.894 54.750,23.636 54.342 C 23.378 53.935,23.167 53.538,23.167 53.460 C 23.167 53.291,22.225 51.187,21.990 50.833 C 21.899 50.696,21.567 50.041,21.251 49.378 C 20.936 48.716,20.260 47.311,19.750 46.257 C 17.686 41.996,17.490 38.263,19.152 34.824 C 19.819 33.444,22.430 30.661,23.514 30.177 C 23.919 29.995,24.458 29.625,24.711 29.352 C 25.799 28.185,25.395 28.201,53.167 28.229 C 76.487 28.253,77.968 28.272,78.802 28.553 M286.750 29.026 C 287.208 29.269,288.190 29.765,288.933 30.128 C 289.890 30.597,290.420 30.976,290.760 31.436 C 291.022 31.792,291.472 32.308,291.759 32.583 C 292.941 33.717,293.460 36.498,292.932 38.873 C 292.536 40.650,291.352 42.385,290.091 43.035 C 289.729 43.222,289.291 43.554,289.118 43.774 C 288.146 45.010,288.358 45.000,263.221 45.000 C 238.157 45.000,240.844 44.827,238.803 46.575 C 237.880 47.366,237.478 47.849,237.180 48.522 C 236.962 49.014,236.607 49.800,236.391 50.269 C 235.127 53.008,235.096 59.088,236.336 61.000 C 236.485 61.229,236.767 61.813,236.962 62.296 C 237.454 63.510,238.353 64.556,239.207 64.906 C 239.597 65.066,240.329 65.397,240.833 65.640 L 241.750 66.083 262.954 66.116 C 289.322 66.156,287.866 66.015,290.672 68.803 C 292.737 70.854,293.080 71.611,293.069 74.083 C 293.057 76.616,292.728 77.430,290.983 79.248 C 289.046 81.266,288.388 81.549,284.583 82.006 C 282.999 82.196,246.133 82.191,243.417 82.000 C 235.324 81.432,235.214 81.414,233.238 80.406 C 232.473 80.016,231.619 79.646,231.339 79.585 C 230.844 79.476,229.137 78.411,229.030 78.145 C 229.000 78.071,228.577 77.783,228.090 77.504 C 227.603 77.225,226.931 76.663,226.596 76.254 C 226.261 75.845,225.772 75.384,225.509 75.229 C 225.246 75.074,224.870 74.659,224.672 74.307 C 224.474 73.956,224.066 73.480,223.765 73.250 C 223.460 73.018,222.946 72.305,222.606 71.643 C 222.269 70.989,221.779 70.209,221.516 69.909 C 221.253 69.610,220.838 68.763,220.593 68.028 C 220.348 67.293,220.048 66.609,219.925 66.507 C 219.484 66.141,219.028 64.713,218.758 62.857 C 218.406 60.433,218.260 59.755,217.894 58.833 C 217.424 57.654,217.460 53.125,217.949 51.750 C 218.145 51.200,218.498 49.491,218.734 47.951 C 219.178 45.054,219.284 44.700,219.919 44.000 C 220.126 43.771,220.424 43.134,220.581 42.586 C 220.956 41.272,221.227 40.771,221.896 40.163 C 222.200 39.886,222.539 39.362,222.647 38.999 C 222.771 38.588,223.068 38.164,223.435 37.877 C 223.759 37.624,224.170 37.137,224.347 36.794 C 224.525 36.452,224.876 36.040,225.127 35.880 C 225.700 35.513,225.847 35.365,226.225 34.776 C 226.392 34.515,226.855 34.158,227.254 33.981 C 227.653 33.805,228.026 33.514,228.083 33.334 C 228.214 32.922,228.862 32.475,229.877 32.099 C 230.313 31.937,230.747 31.661,230.841 31.486 C 231.114 30.976,232.216 30.514,234.046 30.144 C 234.983 29.955,235.865 29.697,236.006 29.573 C 237.162 28.550,237.432 28.539,263.083 28.563 L 285.917 28.583 286.750 29.026 M371.077 28.906 C 371.515 29.038,372.033 29.290,372.228 29.467 C 372.424 29.643,373.129 29.993,373.796 30.244 C 374.582 30.539,375.110 30.849,375.296 31.126 C 375.454 31.360,375.901 31.859,376.290 32.234 C 378.235 34.113,378.200 39.494,376.236 40.653 C 375.934 40.831,375.489 41.275,375.248 41.640 C 374.782 42.344,373.815 42.871,372.583 43.090 C 372.217 43.155,371.504 43.406,371.000 43.646 L 370.083 44.083 346.000 44.120 C 332.754 44.140,321.540 44.202,321.080 44.259 C 319.691 44.430,319.149 45.010,319.276 46.191 C 319.438 47.705,317.382 47.571,342.000 47.677 C 365.237 47.778,364.595 47.753,365.912 48.618 C 366.276 48.858,367.238 49.223,368.049 49.429 C 369.369 49.765,370.833 50.504,370.833 50.834 C 370.833 50.901,371.363 51.192,372.010 51.481 C 372.814 51.841,373.274 52.160,373.462 52.488 C 373.614 52.752,374.063 53.126,374.461 53.320 C 374.880 53.523,375.304 53.890,375.467 54.191 C 375.623 54.476,376.002 54.944,376.311 55.230 C 376.619 55.516,377.050 56.152,377.268 56.644 C 377.486 57.135,377.888 57.792,378.161 58.103 C 380.090 60.299,380.097 69.339,378.172 71.354 C 377.894 71.645,377.591 72.162,377.499 72.502 C 377.325 73.150,375.661 75.325,374.979 75.796 C 374.762 75.947,374.306 76.356,373.967 76.707 C 373.627 77.057,373.067 77.462,372.722 77.606 C 372.376 77.750,371.828 78.142,371.502 78.476 C 371.098 78.892,370.544 79.208,369.747 79.480 C 369.107 79.698,368.308 80.060,367.972 80.285 C 365.916 81.658,365.864 81.660,336.246 81.664 C 306.663 81.667,308.801 81.766,307.186 80.314 C 306.740 79.912,306.174 79.446,305.929 79.278 C 305.684 79.109,305.302 78.584,305.080 78.111 C 304.859 77.637,304.506 77.038,304.297 76.780 C 303.578 75.891,303.679 72.479,304.449 71.621 C 304.633 71.417,305.021 70.825,305.313 70.305 C 305.703 69.610,306.051 69.240,306.630 68.908 C 307.063 68.659,307.604 68.282,307.833 68.070 C 308.063 67.858,308.625 67.512,309.083 67.301 L 309.917 66.917 335.426 66.833 C 364.213 66.739,361.421 66.900,362.072 65.296 C 362.453 64.358,362.454 64.341,362.130 64.238 C 361.949 64.181,361.505 63.838,361.144 63.477 C 360.013 62.346,361.613 62.425,337.833 62.329 C 313.427 62.231,314.556 62.299,312.917 60.829 C 312.733 60.664,312.246 60.443,311.833 60.336 C 310.975 60.114,309.895 59.457,309.443 58.882 C 309.273 58.666,308.768 58.304,308.321 58.077 C 307.868 57.848,307.403 57.462,307.271 57.207 C 307.141 56.956,306.726 56.502,306.350 56.200 C 305.973 55.897,305.513 55.352,305.327 54.988 C 305.142 54.624,304.773 54.134,304.508 53.897 C 304.016 53.459,303.499 52.345,303.161 51.000 C 303.058 50.587,302.789 49.869,302.564 49.403 C 301.769 47.757,301.741 43.911,302.512 42.198 C 302.705 41.768,303.114 40.714,303.420 39.854 C 303.727 38.995,304.161 38.095,304.386 37.854 C 304.610 37.614,304.896 37.217,305.022 36.973 C 305.356 36.324,307.406 34.224,308.012 33.911 C 308.298 33.762,308.754 33.389,309.024 33.081 C 309.318 32.746,309.843 32.413,310.331 32.251 C 310.779 32.102,311.432 31.752,311.781 31.474 C 312.778 30.680,313.154 30.539,315.233 30.183 C 316.385 29.986,317.537 29.677,318.050 29.427 C 318.527 29.195,319.442 28.938,320.083 28.857 C 322.249 28.582,370.154 28.629,371.077 28.906 M41.750 42.743 C 40.202 43.207,40.160 43.231,39.750 43.931 C 39.227 44.824,39.223 45.404,39.735 46.012 C 40.126 46.477,40.370 47.104,40.901 49.015 C 41.044 49.527,41.388 50.233,41.667 50.583 C 41.945 50.934,42.295 51.640,42.443 52.152 C 42.811 53.420,43.158 54.150,43.697 54.789 C 43.948 55.086,44.262 55.699,44.397 56.151 C 44.717 57.229,44.925 57.606,45.674 58.461 C 46.017 58.852,46.460 59.573,46.659 60.063 C 46.858 60.555,47.187 61.044,47.392 61.154 C 47.597 61.263,47.968 61.689,48.216 62.101 C 48.465 62.513,48.907 62.977,49.199 63.133 C 49.694 63.398,50.150 63.800,50.610 64.378 C 51.280 65.219,53.970 64.812,55.020 63.710 C 55.418 63.293,55.981 62.852,56.270 62.731 C 56.587 62.599,56.862 62.326,56.960 62.047 C 57.050 61.792,57.439 61.208,57.825 60.750 C 58.211 60.292,58.752 59.429,59.026 58.833 C 59.301 58.237,59.767 57.487,60.061 57.167 C 60.385 56.813,60.751 56.107,60.991 55.374 C 61.209 54.707,61.623 53.885,61.914 53.541 C 62.247 53.147,62.605 52.392,62.882 51.496 C 63.168 50.568,63.515 49.845,63.880 49.412 C 64.260 48.961,64.507 48.431,64.655 47.750 C 64.774 47.200,65.005 46.395,65.169 45.961 C 65.472 45.157,65.242 43.675,64.736 43.169 C 64.333 42.767,42.991 42.371,41.750 42.743 M286.662 49.511 C 288.001 49.728,288.782 50.089,289.059 50.618 C 289.177 50.842,289.568 51.188,289.928 51.388 C 290.999 51.980,292.085 54.387,291.859 55.669 C 291.536 57.505,289.844 59.722,288.343 60.278 C 287.925 60.433,287.372 60.705,287.113 60.883 C 285.929 61.698,286.374 61.681,265.917 61.680 C 245.479 61.678,245.886 61.693,244.700 60.889 C 244.453 60.721,243.839 60.433,243.337 60.250 C 242.653 60.001,242.338 59.773,242.087 59.346 C 241.901 59.032,241.519 58.543,241.238 58.260 C 240.312 57.329,240.179 57.000,240.149 55.579 C 240.105 53.500,240.304 53.029,241.911 51.408 C 243.348 49.958,243.723 49.727,245.000 49.504 C 246.181 49.297,285.387 49.304,286.662 49.511 " stroke="none" fill="transparent" fill-rule="evenodd"></path><path id="path2" d="M103.486 5.584 C 103.066 5.718,102.503 6.034,102.236 6.287 C 101.969 6.540,101.300 6.936,100.750 7.167 C 99.945 7.505,99.691 7.708,99.445 8.208 C 99.257 8.592,98.919 8.935,98.562 9.105 C 97.974 9.384,97.488 10.125,97.264 11.083 C 97.200 11.358,97.008 11.883,96.838 12.250 C 96.292 13.426,96.248 14.494,96.716 15.184 C 96.938 15.511,97.171 16.072,97.234 16.431 C 97.494 17.900,97.852 18.664,98.537 19.211 C 98.908 19.507,99.558 20.059,99.981 20.436 C 100.973 21.322,101.530 21.597,102.797 21.827 C 103.365 21.930,104.221 22.217,104.700 22.465 C 105.957 23.116,108.158 23.113,109.112 22.460 C 109.487 22.203,110.197 21.943,110.832 21.830 C 112.358 21.558,112.875 21.302,113.520 20.500 C 113.830 20.114,114.369 19.652,114.718 19.474 C 115.189 19.234,115.438 18.948,115.684 18.367 C 115.866 17.936,116.170 17.283,116.359 16.917 C 117.401 14.892,117.369 15.003,117.307 13.651 C 117.254 12.478,117.201 12.304,116.752 11.836 C 116.479 11.551,116.105 10.893,115.920 10.373 C 115.672 9.678,115.429 9.325,115.000 9.037 C 114.679 8.822,114.286 8.392,114.126 8.082 C 113.894 7.632,113.629 7.444,112.818 7.148 C 112.259 6.944,111.714 6.633,111.609 6.458 C 111.001 5.449,105.699 4.879,103.486 5.584 M110.125 6.642 C 110.698 6.933,111.561 7.327,112.042 7.516 C 114.865 8.628,116.745 12.574,115.924 15.667 C 114.651 20.462,109.836 22.714,103.643 21.412 C 100.884 20.831,98.315 18.318,97.736 15.631 C 97.038 12.393,98.820 8.571,101.496 7.567 C 101.911 7.411,102.775 7.017,103.417 6.689 C 105.362 5.697,108.228 5.677,110.125 6.642 M134.471 11.567 C 134.134 11.687,133.516 12.012,133.098 12.289 C 132.680 12.566,132.005 12.876,131.598 12.979 C 130.870 13.162,130.167 13.796,130.167 14.269 C 130.167 14.392,129.880 14.639,129.531 14.818 C 128.684 15.250,128.540 15.450,128.178 16.692 C 128.008 17.274,127.751 17.974,127.605 18.247 C 127.004 19.378,126.991 20.011,127.038 47.254 L 127.083 74.083 127.521 74.833 C 127.762 75.246,128.050 76.069,128.162 76.663 C 128.418 78.024,128.874 78.926,129.460 79.229 C 129.711 79.359,130.169 79.780,130.478 80.164 C 131.162 81.016,131.935 81.362,134.166 81.817 C 136.073 82.206,178.660 82.358,183.583 81.994 C 184.775 81.906,186.838 81.759,188.168 81.668 C 190.968 81.477,192.085 81.222,193.729 80.400 C 194.382 80.073,195.254 79.701,195.667 79.572 C 196.079 79.444,196.792 79.040,197.250 78.676 C 197.708 78.311,198.421 77.807,198.833 77.555 C 199.692 77.029,201.843 74.944,202.452 74.047 C 202.678 73.714,203.040 73.302,203.255 73.133 C 203.663 72.812,204.541 71.375,204.749 70.688 C 204.815 70.470,205.123 70.069,205.433 69.797 C 205.993 69.305,206.667 67.648,206.667 66.761 C 206.667 66.558,206.864 66.210,207.105 65.987 C 207.926 65.230,208.253 64.039,208.510 60.866 C 208.605 59.702,208.806 58.337,208.957 57.833 C 209.356 56.501,209.313 54.088,208.860 52.427 C 208.662 51.699,208.499 50.649,208.497 50.094 C 208.489 47.784,207.981 45.651,207.173 44.535 C 206.911 44.174,206.575 43.402,206.426 42.819 C 206.127 41.650,205.483 40.426,205.088 40.275 C 204.948 40.221,204.650 39.762,204.426 39.255 C 204.140 38.608,203.844 38.230,203.435 37.989 C 203.086 37.783,202.711 37.352,202.498 36.913 C 202.238 36.375,201.970 36.104,201.489 35.892 C 201.128 35.733,200.833 35.510,200.833 35.397 C 200.833 35.025,199.999 34.192,199.441 34.008 C 199.068 33.885,198.802 33.639,198.612 33.239 C 198.393 32.780,198.105 32.550,197.291 32.182 C 196.718 31.924,196.100 31.544,195.917 31.339 C 195.401 30.760,194.803 30.518,192.958 30.142 C 191.786 29.903,191.108 29.673,190.794 29.409 C 189.826 28.594,189.576 28.583,172.000 28.583 C 154.342 28.583,154.699 28.566,154.012 29.439 C 153.833 29.667,153.251 30.020,152.718 30.224 C 151.923 30.528,151.694 30.707,151.440 31.223 C 151.270 31.569,150.841 32.035,150.487 32.258 C 149.923 32.614,149.800 32.814,149.491 33.874 C 149.297 34.539,148.984 35.604,148.795 36.241 L 148.452 37.400 148.804 38.491 C 148.997 39.092,149.276 40.108,149.423 40.750 C 149.706 41.982,149.962 42.386,150.706 42.770 C 150.958 42.901,151.319 43.311,151.508 43.683 C 151.839 44.330,152.827 44.986,153.488 44.996 C 153.618 44.998,154.285 45.277,154.970 45.615 L 156.215 46.230 170.983 46.188 C 186.192 46.144,186.977 46.173,187.998 46.803 C 189.100 47.482,189.700 48.297,190.170 49.750 C 190.289 50.117,190.645 50.806,190.961 51.282 C 192.050 52.925,192.124 57.814,191.082 59.333 C 190.559 60.096,190.055 61.261,189.912 62.036 C 189.797 62.662,189.585 62.927,188.946 63.246 C 188.752 63.343,188.417 63.683,188.202 64.002 C 187.987 64.321,187.685 64.658,187.530 64.750 C 186.951 65.095,145.395 64.967,145.048 64.619 C 144.766 64.337,144.746 63.118,144.667 41.369 C 144.575 16.104,144.637 17.534,143.600 16.705 C 143.402 16.547,143.149 16.112,143.039 15.740 C 142.708 14.621,141.202 13.243,139.874 12.845 C 139.268 12.663,138.582 12.321,138.322 12.072 C 137.596 11.377,135.700 11.128,134.471 11.567 M136.533 12.515 C 139.729 13.173,142.231 14.727,142.600 16.283 C 142.661 16.540,142.884 17.125,143.096 17.583 C 143.828 19.164,143.825 19.078,143.829 41.039 C 143.834 67.289,143.608 65.358,146.705 65.579 C 150.320 65.836,187.046 65.600,187.667 65.315 C 188.467 64.948,190.209 63.211,190.491 62.500 C 190.618 62.179,190.967 61.504,191.268 61.000 C 193.763 56.814,192.164 48.550,188.379 46.066 C 186.613 44.907,187.795 44.982,171.431 44.995 C 153.195 45.011,153.787 45.083,151.447 42.575 C 148.946 39.895,148.790 35.202,151.117 32.604 C 151.619 32.043,152.175 31.421,152.352 31.223 C 152.529 31.024,152.991 30.748,153.379 30.609 C 153.766 30.470,154.571 30.152,155.167 29.902 L 156.250 29.448 171.833 29.486 L 187.417 29.523 189.917 30.099 C 191.292 30.416,192.772 30.755,193.205 30.853 C 193.639 30.951,194.277 31.257,194.622 31.532 C 194.967 31.808,195.784 32.287,196.438 32.598 C 197.091 32.908,197.744 33.343,197.889 33.565 C 198.034 33.786,198.512 34.209,198.951 34.506 C 199.391 34.802,199.859 35.201,199.992 35.391 C 200.126 35.581,200.651 36.167,201.159 36.693 C 202.886 38.478,203.626 39.415,204.169 40.500 C 204.467 41.096,204.881 41.787,205.090 42.036 C 205.298 42.285,205.750 43.335,206.093 44.369 C 206.437 45.404,206.813 46.400,206.929 46.583 C 208.515 49.087,208.496 61.638,206.903 64.120 C 206.772 64.324,206.405 65.293,206.087 66.273 C 205.733 67.366,205.261 68.415,204.867 68.986 C 204.514 69.498,204.131 70.153,204.016 70.442 C 203.901 70.731,203.617 71.143,203.385 71.359 C 203.153 71.574,202.721 72.125,202.424 72.583 C 201.702 73.700,198.796 76.580,197.846 77.121 C 197.426 77.359,196.708 77.833,196.250 78.173 C 195.730 78.558,194.759 79.011,193.667 79.377 C 192.704 79.699,191.477 80.125,190.940 80.323 C 188.901 81.075,188.550 81.083,160.333 81.083 L 133.583 81.083 132.674 80.583 C 131.163 79.752,129.111 77.601,128.780 76.500 C 128.175 74.488,128.147 72.987,128.204 45.417 L 128.259 18.417 128.625 17.340 C 128.903 16.522,129.202 16.050,129.870 15.374 C 130.354 14.885,130.947 14.282,131.187 14.034 C 131.489 13.722,132.208 13.395,133.520 12.972 C 135.781 12.244,135.456 12.293,136.533 12.515 M105.333 28.102 C 103.180 28.391,102.582 28.625,101.590 29.572 C 101.103 30.036,100.476 30.587,100.197 30.794 C 99.919 31.002,99.603 31.452,99.495 31.794 C 99.387 32.137,98.988 33.092,98.608 33.917 L 97.917 35.417 97.917 55.667 L 97.917 75.917 98.469 76.891 C 98.772 77.426,99.168 78.342,99.348 78.925 C 99.711 80.101,100.217 80.798,101.106 81.347 C 101.432 81.549,101.880 81.895,102.102 82.117 C 103.932 83.947,109.557 84.015,111.450 82.230 C 111.771 81.926,112.352 81.492,112.741 81.264 C 113.304 80.934,113.541 80.639,113.915 79.800 C 114.172 79.223,114.529 78.563,114.707 78.333 C 115.638 77.134,115.579 78.553,115.628 56.000 C 115.676 33.715,115.682 33.881,114.832 33.049 C 114.566 32.790,114.160 32.150,113.929 31.628 C 113.595 30.873,113.373 30.608,112.841 30.337 C 112.474 30.150,112.058 29.774,111.917 29.501 C 111.334 28.373,108.229 27.714,105.333 28.102 M27.362 28.343 C 25.880 28.539,25.243 28.782,24.711 29.352 C 24.458 29.625,23.919 29.995,23.514 30.177 C 22.430 30.661,19.819 33.444,19.152 34.824 C 17.490 38.263,17.686 41.996,19.750 46.257 C 20.260 47.311,20.936 48.716,21.251 49.378 C 21.567 50.041,21.899 50.696,21.990 50.833 C 22.225 51.187,23.167 53.291,23.167 53.460 C 23.167 53.538,23.378 53.935,23.636 54.342 C 23.894 54.750,24.189 55.308,24.291 55.583 C 24.981 57.449,25.203 57.951,25.569 58.484 C 25.796 58.813,26.253 59.720,26.585 60.499 C 26.917 61.278,27.291 62.028,27.415 62.166 C 27.540 62.304,28.020 63.158,28.483 64.065 C 28.946 64.972,29.430 65.834,29.559 65.982 C 29.689 66.129,29.998 66.685,30.246 67.216 C 30.495 67.748,30.965 68.531,31.290 68.957 C 31.615 69.383,32.027 70.062,32.205 70.465 C 32.384 70.869,32.772 71.473,33.067 71.808 C 33.363 72.143,33.801 72.754,34.041 73.167 C 34.281 73.579,34.828 74.292,35.258 74.750 C 35.687 75.208,36.227 75.865,36.458 76.208 C 36.689 76.552,36.940 76.833,37.016 76.833 C 37.091 76.833,37.625 77.307,38.202 77.886 C 38.778 78.465,39.625 79.152,40.083 79.413 C 40.542 79.674,41.104 80.059,41.333 80.268 C 41.834 80.725,42.942 81.232,44.177 81.568 C 44.676 81.704,45.533 82.001,46.083 82.228 C 49.106 83.476,55.613 83.564,58.450 82.396 C 58.798 82.252,59.308 82.038,59.583 81.920 C 59.858 81.802,60.587 81.577,61.202 81.419 C 62.305 81.137,63.833 80.323,63.833 80.017 C 63.833 79.931,64.173 79.731,64.587 79.573 C 65.273 79.311,66.333 78.363,66.333 78.012 C 66.333 77.934,66.513 77.824,66.733 77.769 C 66.952 77.714,67.346 77.403,67.608 77.078 C 67.869 76.753,68.428 76.134,68.850 75.702 C 69.272 75.270,69.709 74.634,69.822 74.289 C 69.955 73.884,70.200 73.572,70.514 73.410 C 70.828 73.247,71.184 72.793,71.523 72.121 C 71.811 71.550,72.300 70.787,72.610 70.424 C 72.920 70.062,73.333 69.328,73.528 68.793 C 73.761 68.155,74.053 67.700,74.379 67.468 C 74.874 67.115,75.521 65.888,75.739 64.887 C 75.803 64.594,76.043 64.235,76.276 64.082 C 76.713 63.795,77.334 62.570,77.666 61.337 C 77.778 60.920,78.058 60.456,78.341 60.218 C 78.700 59.916,78.956 59.400,79.336 58.216 C 79.685 57.126,79.975 56.520,80.252 56.302 C 80.626 56.008,81.500 53.746,81.500 53.074 C 81.500 52.940,81.695 52.663,81.933 52.457 C 82.475 51.989,82.888 51.192,83.253 49.912 C 83.415 49.341,83.738 48.703,84.010 48.417 C 84.561 47.834,84.861 47.168,85.249 45.667 C 85.403 45.071,85.636 44.523,85.766 44.449 C 87.081 43.705,87.217 37.335,85.952 35.727 C 85.753 35.473,85.363 34.740,85.086 34.098 C 84.720 33.249,84.424 32.823,84.000 32.539 C 83.679 32.324,83.238 31.849,83.020 31.483 C 82.751 31.032,82.348 30.678,81.770 30.387 C 81.301 30.150,80.640 29.708,80.302 29.404 C 78.935 28.177,80.791 28.257,53.167 28.229 C 39.554 28.215,27.942 28.266,27.362 28.343 M109.656 28.969 C 110.169 29.126,110.784 29.468,111.073 29.756 C 111.354 30.036,111.906 30.515,112.300 30.820 C 113.085 31.427,113.864 32.807,114.480 34.679 L 114.841 35.775 114.796 55.846 L 114.750 75.917 114.354 76.833 C 114.136 77.337,113.798 78.125,113.604 78.582 C 112.845 80.367,109.965 82.377,107.790 82.639 C 104.188 83.072,100.494 80.626,99.528 77.167 C 99.121 75.711,99.031 36.559,99.430 34.599 C 100.363 30.014,104.911 27.510,109.656 28.969 M238.901 28.675 C 237.563 28.806,236.499 29.136,236.006 29.573 C 235.865 29.697,234.983 29.955,234.046 30.144 C 232.216 30.514,231.114 30.976,230.841 31.486 C 230.747 31.661,230.313 31.937,229.877 32.099 C 228.862 32.475,228.214 32.922,228.083 33.334 C 228.026 33.514,227.653 33.805,227.254 33.981 C 226.855 34.158,226.392 34.515,226.225 34.776 C 225.847 35.365,225.700 35.513,225.127 35.880 C 224.876 36.040,224.525 36.452,224.347 36.794 C 224.170 37.137,223.759 37.624,223.435 37.877 C 223.068 38.164,222.771 38.588,222.647 38.999 C 222.539 39.362,222.200 39.886,221.896 40.163 C 221.227 40.771,220.956 41.272,220.581 42.586 C 220.424 43.134,220.126 43.771,219.919 44.000 C 219.284 44.700,219.178 45.054,218.734 47.951 C 218.498 49.491,218.145 51.200,217.949 51.750 C 217.460 53.125,217.424 57.654,217.894 58.833 C 218.260 59.755,218.406 60.433,218.758 62.857 C 219.028 64.713,219.484 66.141,219.925 66.507 C 220.048 66.609,220.348 67.293,220.593 68.028 C 220.838 68.763,221.253 69.610,221.516 69.909 C 221.779 70.209,222.269 70.989,222.606 71.643 C 222.946 72.305,223.460 73.018,223.765 73.250 C 224.066 73.480,224.474 73.956,224.672 74.307 C 224.870 74.659,225.246 75.074,225.509 75.229 C 225.772 75.384,226.261 75.845,226.596 76.254 C 226.931 76.663,227.603 77.225,228.090 77.504 C 228.577 77.783,229.000 78.071,229.030 78.145 C 229.137 78.411,230.844 79.476,231.339 79.585 C 231.619 79.646,232.473 80.016,233.238 80.406 C 235.214 81.414,235.324 81.432,243.417 82.000 C 246.133 82.191,282.999 82.196,284.583 82.006 C 288.388 81.549,289.046 81.266,290.983 79.248 C 292.728 77.430,293.057 76.616,293.069 74.083 C 293.080 71.611,292.737 70.854,290.672 68.803 C 287.866 66.015,289.322 66.156,262.954 66.116 L 241.750 66.083 240.833 65.640 C 240.329 65.397,239.597 65.066,239.207 64.906 C 238.353 64.556,237.454 63.510,236.962 62.296 C 236.767 61.813,236.485 61.229,236.336 61.000 C 235.685 59.996,235.500 58.827,235.502 55.735 C 235.504 52.587,235.603 51.977,236.391 50.269 C 236.607 49.800,236.962 49.014,237.180 48.522 C 237.478 47.849,237.880 47.366,238.803 46.575 C 240.844 44.827,238.157 45.000,263.221 45.000 C 288.358 45.000,288.146 45.010,289.118 43.774 C 289.291 43.554,289.729 43.222,290.091 43.035 C 291.352 42.385,292.536 40.650,292.932 38.873 C 293.460 36.498,292.941 33.717,291.759 32.583 C 291.472 32.308,291.022 31.792,290.760 31.436 C 290.420 30.976,289.890 30.597,288.933 30.128 C 288.190 29.765,287.208 29.269,286.750 29.026 L 285.917 28.583 263.083 28.563 C 250.525 28.551,239.643 28.602,238.901 28.675 M76.417 28.848 C 77.427 28.970,78.134 29.156,78.583 29.417 C 78.950 29.630,79.858 30.147,80.602 30.565 C 81.598 31.126,82.137 31.563,82.653 32.232 C 83.037 32.730,83.457 33.179,83.586 33.228 C 83.864 33.335,84.507 34.565,85.100 36.125 C 86.137 38.854,86.265 40.600,85.569 42.545 C 85.332 43.208,84.930 44.350,84.677 45.083 C 84.423 45.817,83.954 46.829,83.633 47.333 C 83.312 47.837,82.884 48.696,82.682 49.241 C 82.479 49.786,82.048 50.662,81.724 51.187 C 81.399 51.713,80.949 52.655,80.723 53.280 C 80.496 53.905,80.098 54.754,79.837 55.167 C 79.575 55.579,79.127 56.529,78.841 57.278 C 78.554 58.026,78.167 58.834,77.980 59.071 C 77.793 59.309,77.354 60.172,77.005 60.989 C 76.656 61.806,76.177 62.728,75.940 63.037 C 75.704 63.347,75.330 64.010,75.109 64.510 C 74.888 65.010,74.285 66.048,73.770 66.818 C 73.255 67.588,72.833 68.302,72.833 68.404 C 72.833 68.507,72.623 68.852,72.365 69.170 C 72.108 69.489,71.650 70.200,71.347 70.750 C 71.045 71.300,70.513 72.092,70.166 72.510 C 69.818 72.928,69.395 73.496,69.225 73.773 C 68.098 75.611,65.202 78.317,63.392 79.224 C 62.736 79.552,61.920 80.011,61.577 80.243 C 60.861 80.730,60.441 80.855,57.250 81.530 C 52.671 82.500,46.314 81.946,43.622 80.343 C 43.142 80.057,42.300 79.608,41.750 79.344 C 40.271 78.635,37.093 75.728,36.088 74.164 C 35.881 73.842,35.581 73.470,35.422 73.337 C 35.089 73.062,32.829 69.638,32.318 68.637 C 32.131 68.270,31.728 67.621,31.423 67.193 C 31.118 66.766,30.648 65.926,30.377 65.326 C 30.107 64.727,29.658 63.921,29.379 63.537 C 29.101 63.152,28.663 62.330,28.406 61.710 C 28.149 61.091,27.848 60.471,27.738 60.333 C 27.468 59.997,26.408 57.854,26.254 57.333 C 26.186 57.104,25.912 56.570,25.645 56.146 C 25.377 55.722,24.942 54.784,24.678 54.062 C 24.413 53.341,23.928 52.305,23.599 51.760 C 23.270 51.216,22.845 50.353,22.655 49.843 C 22.466 49.334,22.084 48.563,21.808 48.131 C 21.532 47.699,21.058 46.724,20.755 45.964 C 20.452 45.205,20.013 44.171,19.779 43.667 C 17.869 39.556,20.227 32.667,24.243 30.630 C 24.613 30.442,25.217 30.085,25.583 29.837 C 26.448 29.252,27.184 28.993,28.417 28.838 C 30.069 28.630,74.687 28.640,76.417 28.848 M320.083 28.857 C 319.442 28.938,318.527 29.195,318.050 29.427 C 317.537 29.677,316.385 29.986,315.233 30.183 C 313.154 30.539,312.778 30.680,311.781 31.474 C 311.432 31.752,310.779 32.102,310.331 32.251 C 309.843 32.413,309.318 32.746,309.024 33.081 C 308.754 33.389,308.298 33.762,308.012 33.911 C 307.406 34.224,305.356 36.324,305.022 36.973 C 304.896 37.217,304.610 37.614,304.386 37.854 C 304.161 38.095,303.727 38.995,303.420 39.854 C 303.114 40.714,302.705 41.768,302.512 42.198 C 301.741 43.911,301.769 47.757,302.564 49.403 C 302.789 49.869,303.058 50.587,303.161 51.000 C 303.499 52.345,304.016 53.459,304.508 53.897 C 304.773 54.134,305.142 54.624,305.327 54.988 C 305.513 55.352,305.973 55.897,306.350 56.200 C 306.726 56.502,307.141 56.956,307.271 57.207 C 307.403 57.462,307.868 57.848,308.321 58.077 C 308.768 58.304,309.273 58.666,309.443 58.882 C 309.895 59.457,310.975 60.114,311.833 60.336 C 312.246 60.443,312.733 60.664,312.917 60.829 C 314.556 62.299,313.427 62.231,337.833 62.329 C 361.613 62.425,360.013 62.346,361.144 63.477 C 361.505 63.838,361.949 64.181,362.130 64.238 C 362.454 64.341,362.453 64.358,362.072 65.296 C 361.421 66.900,364.213 66.739,335.426 66.833 L 309.917 66.917 309.083 67.301 C 308.625 67.512,308.063 67.858,307.833 68.070 C 307.604 68.282,307.063 68.659,306.630 68.908 C 306.051 69.240,305.703 69.610,305.313 70.305 C 305.021 70.825,304.633 71.417,304.449 71.621 C 303.679 72.479,303.578 75.891,304.297 76.780 C 304.506 77.038,304.859 77.637,305.080 78.111 C 305.302 78.584,305.684 79.109,305.929 79.278 C 306.174 79.446,306.740 79.912,307.186 80.314 C 308.801 81.766,306.663 81.667,336.246 81.664 C 365.864 81.660,365.916 81.658,367.972 80.285 C 368.308 80.060,369.107 79.698,369.747 79.480 C 370.544 79.208,371.098 78.892,371.502 78.476 C 371.828 78.142,372.376 77.750,372.722 77.606 C 373.067 77.462,373.627 77.057,373.967 76.707 C 374.306 76.356,374.762 75.947,374.979 75.796 C 375.661 75.325,377.325 73.150,377.499 72.502 C 377.591 72.162,377.894 71.645,378.172 71.354 C 380.097 69.339,380.090 60.299,378.161 58.103 C 377.888 57.792,377.486 57.135,377.268 56.644 C 377.050 56.152,376.619 55.516,376.311 55.230 C 376.002 54.944,375.623 54.476,375.467 54.191 C 375.304 53.890,374.880 53.523,374.461 53.320 C 374.063 53.126,373.614 52.752,373.462 52.488 C 373.274 52.160,372.814 51.841,372.010 51.481 C 371.363 51.192,370.833 50.901,370.833 50.834 C 370.833 50.504,369.369 49.765,368.049 49.429 C 367.238 49.223,366.276 48.858,365.912 48.618 C 364.595 47.753,365.237 47.778,342.000 47.677 C 317.382 47.571,319.438 47.705,319.276 46.191 C 319.149 45.010,319.691 44.430,321.080 44.259 C 321.540 44.202,332.754 44.140,346.000 44.120 L 370.083 44.083 371.000 43.646 C 371.504 43.406,372.217 43.155,372.583 43.090 C 373.815 42.871,374.782 42.344,375.248 41.640 C 375.489 41.275,375.934 40.831,376.236 40.653 C 378.200 39.494,378.235 34.113,376.290 32.234 C 375.901 31.859,375.454 31.360,375.296 31.126 C 375.110 30.849,374.582 30.539,373.796 30.244 C 373.129 29.993,372.424 29.643,372.228 29.467 C 371.319 28.645,372.007 28.665,345.765 28.688 C 332.282 28.699,320.725 28.775,320.083 28.857 M286.028 29.765 C 286.273 29.891,286.910 30.157,287.445 30.355 C 292.815 32.348,293.815 39.533,289.150 42.606 C 288.519 43.022,287.961 43.429,287.911 43.510 C 287.406 44.325,287.180 44.333,263.524 44.336 C 237.984 44.339,239.998 44.216,238.144 45.876 C 237.504 46.448,236.824 47.217,236.633 47.583 C 236.442 47.950,236.118 48.475,235.914 48.750 C 234.471 50.691,234.105 58.061,235.288 61.333 C 235.927 63.100,237.269 64.768,238.827 65.732 C 241.065 67.118,238.797 67.000,263.293 67.000 C 286.490 67.000,287.089 67.019,288.080 67.793 C 290.326 69.546,290.741 70.017,291.625 71.817 C 292.667 73.939,291.896 77.319,290.023 78.837 C 286.799 81.451,289.905 81.194,262.416 81.121 C 238.224 81.057,238.030 81.051,236.000 80.302 C 235.496 80.116,234.221 79.672,233.166 79.316 C 232.045 78.938,231.063 78.496,230.799 78.251 C 230.551 78.021,229.959 77.604,229.483 77.323 C 227.575 76.198,223.832 72.283,222.880 70.417 C 222.646 69.958,222.284 69.378,222.074 69.128 C 221.865 68.878,221.459 68.053,221.173 67.295 C 220.887 66.537,220.436 65.429,220.170 64.833 C 218.206 60.426,218.282 50.062,220.314 45.361 C 220.578 44.750,220.888 43.950,221.003 43.583 C 221.287 42.678,221.787 41.702,222.326 41.000 C 222.573 40.679,222.972 40.058,223.212 39.619 C 223.933 38.306,226.759 35.218,227.982 34.409 C 228.349 34.166,228.760 33.799,228.894 33.595 C 229.028 33.390,229.650 32.979,230.277 32.682 C 230.904 32.385,231.794 31.883,232.256 31.568 C 232.915 31.117,233.505 30.907,235.006 30.589 C 236.057 30.366,237.404 30.051,238.000 29.888 C 239.935 29.361,285.020 29.246,286.028 29.765 M371.747 30.260 C 373.468 30.818,374.667 31.385,374.667 31.640 C 374.667 31.702,375.069 32.214,375.561 32.778 C 377.777 35.318,377.467 38.361,374.736 40.870 C 372.283 43.124,373.911 43.008,344.901 42.993 C 319.705 42.980,320.359 42.963,319.583 43.656 C 319.308 43.902,318.795 44.314,318.442 44.572 C 317.820 45.028,317.805 45.063,317.915 45.797 C 318.109 47.092,318.266 47.320,319.291 47.801 L 320.250 48.250 341.250 48.337 L 362.250 48.424 363.667 48.878 C 364.446 49.128,365.908 49.562,366.917 49.842 C 368.132 50.179,368.949 50.510,369.341 50.822 C 369.666 51.082,370.416 51.537,371.007 51.835 C 371.599 52.132,372.390 52.656,372.764 52.999 C 373.139 53.342,373.648 53.756,373.897 53.919 C 375.313 54.847,377.959 59.279,378.571 61.750 C 379.631 66.024,377.842 71.912,374.597 74.829 C 374.237 75.152,373.700 75.659,373.402 75.955 C 373.105 76.252,372.386 76.771,371.806 77.110 C 371.225 77.448,370.470 77.948,370.129 78.221 C 369.746 78.526,368.596 79.031,367.129 79.536 C 362.760 81.042,365.709 80.910,336.413 80.914 L 310.410 80.917 309.330 80.384 C 303.362 77.438,303.430 71.347,309.467 68.240 L 310.744 67.583 335.914 67.500 L 361.083 67.417 362.007 66.983 C 362.911 66.560,362.938 66.526,363.223 65.502 L 363.514 64.455 363.095 63.850 C 362.550 63.063,361.421 62.203,360.675 62.004 C 360.326 61.912,351.530 61.820,339.250 61.781 C 316.593 61.709,317.100 61.730,315.222 60.778 C 314.774 60.551,313.860 60.199,313.190 59.996 C 312.520 59.792,311.659 59.388,311.278 59.097 C 310.896 58.806,310.133 58.259,309.583 57.882 C 300.336 51.541,301.501 37.140,311.639 32.475 C 312.402 32.124,313.218 31.686,313.452 31.502 C 313.979 31.087,314.538 30.935,317.167 30.491 C 321.920 29.687,321.272 29.705,346.250 29.686 L 369.917 29.667 371.747 30.260 M41.833 41.847 C 38.650 42.257,37.564 44.946,39.431 47.796 C 39.574 48.014,39.878 48.693,40.106 49.305 C 40.509 50.388,41.904 53.405,42.775 55.083 C 43.013 55.542,43.493 56.482,43.841 57.174 C 44.188 57.865,44.807 58.878,45.214 59.424 C 45.622 59.970,46.074 60.642,46.217 60.917 C 46.880 62.187,49.125 64.374,50.487 65.077 C 51.798 65.754,54.582 65.404,55.539 64.442 C 55.838 64.141,56.330 63.724,56.632 63.515 C 57.139 63.163,58.117 62.008,58.917 60.817 C 60.076 59.091,61.148 57.312,61.419 56.667 C 61.592 56.254,61.931 55.617,62.173 55.250 C 62.414 54.883,62.858 53.983,63.158 53.250 C 63.459 52.517,63.960 51.457,64.272 50.895 C 64.584 50.333,65.017 49.358,65.234 48.728 C 65.452 48.099,65.863 47.096,66.148 46.500 C 66.724 45.295,66.739 45.189,66.494 44.046 C 66.283 43.061,64.987 42.121,63.572 41.927 C 62.548 41.786,42.868 41.713,41.833 41.847 M63.413 42.841 C 64.786 43.040,64.812 43.061,65.180 44.251 C 65.451 45.126,65.451 45.212,65.169 45.961 C 65.005 46.395,64.774 47.200,64.655 47.750 C 64.507 48.431,64.260 48.961,63.880 49.412 C 63.515 49.845,63.168 50.568,62.882 51.496 C 62.605 52.392,62.247 53.147,61.914 53.541 C 61.623 53.885,61.209 54.707,60.991 55.374 C 60.751 56.107,60.385 56.813,60.061 57.167 C 59.767 57.487,59.301 58.237,59.026 58.833 C 58.752 59.429,58.211 60.292,57.825 60.750 C 57.439 61.208,57.050 61.792,56.960 62.047 C 56.862 62.326,56.587 62.599,56.270 62.731 C 55.981 62.852,55.418 63.293,55.020 63.710 C 53.970 64.812,51.280 65.219,50.610 64.378 C 50.150 63.800,49.694 63.398,49.199 63.133 C 48.907 62.977,48.465 62.513,48.216 62.101 C 47.968 61.689,47.597 61.263,47.392 61.154 C 47.187 61.044,46.858 60.555,46.659 60.063 C 46.460 59.573,46.017 58.852,45.674 58.461 C 44.925 57.606,44.717 57.229,44.397 56.151 C 44.262 55.699,43.948 55.086,43.697 54.789 C 43.158 54.150,42.811 53.420,42.443 52.152 C 42.295 51.640,41.945 50.934,41.667 50.583 C 41.388 50.233,41.044 49.527,40.901 49.015 C 40.370 47.104,40.126 46.477,39.735 46.012 C 39.223 45.404,39.227 44.824,39.750 43.931 C 40.160 43.231,40.202 43.207,41.750 42.743 C 42.218 42.603,62.395 42.694,63.413 42.841 M245.000 49.504 C 243.723 49.727,243.348 49.958,241.911 51.408 C 239.647 53.693,239.382 56.392,241.238 58.260 C 241.519 58.543,241.901 59.032,242.087 59.346 C 242.338 59.773,242.653 60.001,243.337 60.250 C 243.839 60.433,244.453 60.721,244.700 60.889 C 245.886 61.693,245.479 61.678,265.917 61.680 C 286.374 61.681,285.929 61.698,287.113 60.883 C 287.372 60.705,287.925 60.433,288.343 60.278 C 289.844 59.722,291.536 57.505,291.859 55.669 C 292.085 54.387,290.999 51.980,289.928 51.388 C 289.568 51.188,289.177 50.842,289.059 50.618 C 288.782 50.089,288.001 49.728,286.662 49.511 C 285.387 49.304,246.181 49.297,245.000 49.504 M286.744 50.227 C 289.878 51.403,291.719 55.301,290.121 57.378 C 287.605 60.646,288.841 60.488,265.667 60.495 C 244.136 60.501,243.980 60.488,242.578 58.562 C 242.320 58.207,241.902 57.646,241.649 57.315 C 239.850 54.963,242.466 50.534,245.963 50.011 C 248.128 49.687,285.837 49.887,286.744 50.227 " stroke="none" fill="transparent" fill-rule="evenodd"></path><path id="path3" d="M105.667 6.005 C 104.875 6.070,104.269 6.255,103.417 6.689 C 102.775 7.017,101.911 7.411,101.496 7.567 C 100.441 7.963,98.328 10.256,97.949 11.417 C 97.052 14.161,97.608 16.965,99.398 18.725 C 101.789 21.077,102.691 21.485,106.112 21.763 C 112.776 22.304,117.542 17.313,115.713 11.708 C 115.144 9.965,113.505 8.092,112.042 7.516 C 111.561 7.327,110.698 6.933,110.125 6.642 C 108.968 6.053,107.551 5.851,105.667 6.005 M110.022 6.930 C 110.721 7.244,111.617 7.615,112.013 7.755 C 113.243 8.188,114.990 10.246,115.458 11.811 C 116.334 14.737,115.623 17.390,113.511 19.074 C 112.875 19.582,112.307 20.074,112.249 20.168 C 111.375 21.583,103.806 21.950,102.167 20.657 C 101.938 20.476,101.327 20.009,100.810 19.618 C 99.166 18.377,98.342 17.220,98.020 15.700 C 97.537 13.415,98.036 10.871,99.133 10.034 C 99.440 9.800,99.907 9.294,100.172 8.909 C 100.577 8.320,100.871 8.124,102.035 7.663 C 102.795 7.363,103.679 6.961,103.999 6.770 C 105.329 5.977,108.062 6.049,110.022 6.930 M133.520 12.972 C 132.208 13.395,131.489 13.722,131.187 14.034 C 130.947 14.282,130.354 14.885,129.870 15.374 C 129.202 16.050,128.903 16.522,128.625 17.340 L 128.259 18.417 128.204 45.417 C 128.147 72.987,128.175 74.488,128.780 76.500 C 129.111 77.601,131.163 79.752,132.674 80.583 L 133.583 81.083 160.333 81.083 C 188.550 81.083,188.901 81.075,190.940 80.323 C 191.477 80.125,192.704 79.699,193.667 79.377 C 194.759 79.011,195.730 78.558,196.250 78.173 C 196.708 77.833,197.426 77.359,197.846 77.121 C 198.796 76.580,201.702 73.700,202.424 72.583 C 202.721 72.125,203.153 71.574,203.385 71.359 C 203.617 71.143,203.901 70.731,204.016 70.442 C 204.131 70.153,204.514 69.498,204.867 68.986 C 205.261 68.415,205.733 67.366,206.087 66.273 C 206.405 65.293,206.772 64.324,206.903 64.120 C 208.496 61.638,208.515 49.087,206.929 46.583 C 206.813 46.400,206.437 45.404,206.093 44.369 C 205.750 43.335,205.298 42.285,205.090 42.036 C 204.881 41.787,204.467 41.096,204.169 40.500 C 203.626 39.415,202.886 38.478,201.159 36.693 C 200.651 36.167,200.126 35.581,199.992 35.391 C 199.859 35.201,199.391 34.802,198.951 34.506 C 198.512 34.209,198.034 33.786,197.889 33.565 C 197.744 33.343,197.091 32.908,196.438 32.598 C 195.784 32.287,194.967 31.808,194.622 31.532 C 194.277 31.257,193.639 30.951,193.205 30.853 C 192.772 30.755,191.292 30.416,189.917 30.099 L 187.417 29.523 171.833 29.486 L 156.250 29.448 155.167 29.902 C 154.571 30.152,153.766 30.470,153.379 30.609 C 152.991 30.748,152.529 31.024,152.352 31.223 C 152.175 31.421,151.619 32.043,151.117 32.604 C 148.790 35.202,148.946 39.895,151.447 42.575 C 153.787 45.083,153.195 45.011,171.431 44.995 C 187.795 44.982,186.613 44.907,188.379 46.066 C 192.164 48.550,193.763 56.814,191.268 61.000 C 190.967 61.504,190.618 62.179,190.491 62.500 C 190.209 63.211,188.467 64.948,187.667 65.315 C 187.046 65.600,150.320 65.836,146.705 65.579 C 143.608 65.358,143.834 67.289,143.829 41.039 C 143.825 19.078,143.828 19.164,143.096 17.583 C 142.884 17.125,142.661 16.540,142.600 16.283 C 142.361 15.274,140.302 13.561,138.785 13.106 C 135.767 12.203,135.897 12.207,133.520 12.972 M136.750 12.909 C 139.053 13.273,139.724 13.538,140.748 14.489 C 142.055 15.705,142.181 15.884,142.630 17.165 C 143.565 19.834,143.506 18.210,143.501 41.000 C 143.495 65.876,143.441 65.157,145.350 65.671 C 146.105 65.874,185.838 65.939,186.940 65.738 C 188.255 65.500,190.410 63.746,190.761 62.629 C 190.826 62.421,191.124 61.866,191.424 61.397 C 192.507 59.698,192.960 55.119,192.363 51.895 C 191.872 49.242,189.593 46.099,187.333 44.960 C 187.011 44.797,183.330 44.731,171.000 44.664 L 155.083 44.578 154.108 44.209 C 152.698 43.675,150.629 41.594,150.164 40.241 C 149.360 37.907,149.854 34.266,151.153 32.941 C 151.526 32.561,152.075 31.975,152.374 31.638 C 152.827 31.127,153.233 30.921,154.833 30.388 L 156.750 29.750 172.333 29.847 L 187.917 29.944 190.716 30.533 C 193.124 31.039,193.636 31.204,194.382 31.711 C 194.860 32.035,195.662 32.504,196.167 32.753 C 196.671 33.003,197.476 33.554,197.956 33.978 C 199.805 35.613,201.625 37.449,202.129 38.188 C 202.418 38.613,202.757 38.999,202.882 39.047 C 203.006 39.095,203.396 39.685,203.747 40.359 C 204.098 41.032,204.601 41.900,204.864 42.287 C 205.128 42.674,205.637 43.874,205.997 44.954 C 206.357 46.033,206.802 47.335,206.985 47.846 C 208.214 51.276,208.164 60.755,206.903 63.192 C 206.771 63.449,206.357 64.575,205.984 65.694 C 205.611 66.814,205.097 68.034,204.842 68.406 C 204.587 68.779,204.183 69.470,203.945 69.942 C 203.706 70.414,203.209 71.150,202.839 71.577 C 202.469 72.004,202.167 72.423,202.167 72.508 C 202.167 72.836,198.100 76.695,197.357 77.073 C 196.931 77.289,196.297 77.695,195.948 77.973 C 195.256 78.525,195.044 78.610,191.583 79.722 C 188.045 80.859,188.773 80.833,159.929 80.832 C 131.311 80.831,133.641 80.945,131.645 79.456 C 128.217 76.899,128.483 79.773,128.538 45.971 C 128.590 14.417,128.460 17.116,130.000 15.667 C 130.439 15.254,130.887 14.741,130.996 14.526 C 131.294 13.940,135.023 12.571,135.833 12.749 C 135.971 12.779,136.383 12.852,136.750 12.909 M105.330 28.655 C 102.633 29.026,100.031 31.647,99.430 34.599 C 99.031 36.559,99.121 75.711,99.528 77.167 C 100.494 80.626,104.188 83.072,107.790 82.639 C 109.965 82.377,112.845 80.367,113.604 78.582 C 113.798 78.125,114.136 77.337,114.354 76.833 L 114.750 75.917 114.796 55.846 L 114.841 35.775 114.480 34.679 C 113.864 32.807,113.085 31.427,112.300 30.820 C 111.906 30.515,111.354 30.036,111.073 29.756 C 110.174 28.860,107.528 28.352,105.330 28.655 M28.417 28.838 C 27.184 28.993,26.448 29.252,25.583 29.837 C 25.217 30.085,24.613 30.442,24.243 30.630 C 20.227 32.667,17.869 39.556,19.779 43.667 C 20.013 44.171,20.452 45.205,20.755 45.964 C 21.058 46.724,21.532 47.699,21.808 48.131 C 22.084 48.563,22.466 49.334,22.655 49.843 C 22.845 50.353,23.270 51.216,23.599 51.760 C 23.928 52.305,24.413 53.341,24.678 54.062 C 24.942 54.784,25.377 55.722,25.645 56.146 C 25.912 56.570,26.186 57.104,26.254 57.333 C 26.408 57.854,27.468 59.997,27.738 60.333 C 27.848 60.471,28.149 61.091,28.406 61.710 C 28.663 62.330,29.101 63.152,29.379 63.537 C 29.658 63.921,30.107 64.727,30.377 65.326 C 30.648 65.926,31.118 66.766,31.423 67.193 C 31.728 67.621,32.131 68.270,32.318 68.637 C 32.829 69.638,35.089 73.062,35.422 73.337 C 35.581 73.470,35.881 73.842,36.088 74.164 C 37.093 75.728,40.271 78.635,41.750 79.344 C 42.300 79.608,43.142 80.057,43.622 80.343 C 46.314 81.946,52.671 82.500,57.250 81.530 C 60.441 80.855,60.861 80.730,61.577 80.243 C 61.920 80.011,62.736 79.552,63.392 79.224 C 65.202 78.317,68.098 75.611,69.225 73.773 C 69.395 73.496,69.818 72.928,70.166 72.510 C 70.513 72.092,71.045 71.300,71.347 70.750 C 71.650 70.200,72.108 69.489,72.365 69.170 C 72.623 68.852,72.833 68.507,72.833 68.404 C 72.833 68.302,73.255 67.588,73.770 66.818 C 74.285 66.048,74.888 65.010,75.109 64.510 C 75.330 64.010,75.704 63.347,75.940 63.037 C 76.177 62.728,76.656 61.806,77.005 60.989 C 77.354 60.172,77.793 59.309,77.980 59.071 C 78.167 58.834,78.554 58.026,78.841 57.278 C 79.127 56.529,79.575 55.579,79.837 55.167 C 80.098 54.754,80.496 53.905,80.723 53.280 C 80.949 52.655,81.399 51.713,81.724 51.187 C 82.048 50.662,82.479 49.786,82.682 49.241 C 82.884 48.696,83.312 47.837,83.633 47.333 C 83.954 46.829,84.423 45.817,84.677 45.083 C 84.930 44.350,85.332 43.208,85.569 42.545 C 86.265 40.600,86.137 38.854,85.100 36.125 C 84.507 34.565,83.864 33.335,83.586 33.228 C 83.457 33.179,83.037 32.730,82.653 32.232 C 82.137 31.563,81.598 31.126,80.602 30.565 C 79.858 30.147,78.950 29.630,78.583 29.417 C 78.134 29.156,77.427 28.970,76.417 28.848 C 74.687 28.640,30.069 28.630,28.417 28.838 M109.431 29.172 C 110.023 29.375,110.679 29.762,111.082 30.146 C 111.449 30.495,111.998 30.952,112.302 31.160 C 112.909 31.575,113.436 32.613,114.100 34.698 L 114.508 35.979 114.462 55.781 L 114.417 75.583 113.960 76.891 C 113.012 79.606,112.619 80.067,110.117 81.395 C 105.861 83.655,100.820 81.376,99.770 76.717 C 99.399 75.068,99.356 36.501,99.724 34.583 C 100.097 32.637,101.315 31.028,103.539 29.542 C 104.728 28.747,107.662 28.563,109.431 29.172 M78.084 29.513 C 79.841 30.419,82.000 31.701,82.000 31.838 C 82.000 31.917,82.402 32.417,82.894 32.949 C 86.119 36.441,86.345 42.277,83.439 46.986 C 83.117 47.508,82.686 48.381,82.483 48.926 C 82.279 49.471,81.865 50.292,81.561 50.750 C 81.258 51.208,80.859 52.020,80.676 52.555 C 80.492 53.089,80.046 54.064,79.684 54.721 C 79.322 55.379,78.836 56.424,78.603 57.043 C 78.371 57.663,77.965 58.488,77.702 58.877 C 77.439 59.265,77.017 60.108,76.764 60.750 C 76.511 61.392,76.118 62.163,75.889 62.465 C 75.660 62.766,75.256 63.492,74.990 64.078 C 74.725 64.663,74.093 65.751,73.587 66.494 C 73.081 67.238,72.667 67.919,72.667 68.009 C 72.667 68.098,72.302 68.714,71.857 69.377 C 71.411 70.041,70.770 70.996,70.432 71.500 C 67.789 75.443,65.320 77.993,63.222 78.948 C 62.688 79.192,61.875 79.636,61.417 79.935 C 57.722 82.346,48.146 82.181,43.015 79.617 C 40.696 78.458,36.333 74.797,36.333 74.009 C 36.333 73.913,36.081 73.553,35.774 73.209 C 34.857 72.185,31.905 67.501,30.743 65.228 C 30.362 64.482,29.886 63.641,29.685 63.359 C 29.484 63.077,28.986 62.150,28.578 61.298 C 28.170 60.447,27.651 59.413,27.423 59.000 C 26.783 57.839,25.000 54.098,25.000 53.917 C 25.000 53.828,24.142 52.029,23.094 49.919 C 19.955 43.605,19.502 42.351,19.485 39.950 C 19.464 36.674,21.821 32.232,24.250 30.972 C 24.617 30.782,25.350 30.360,25.881 30.036 C 27.638 28.960,26.099 29.016,52.834 29.051 L 77.251 29.083 78.084 29.513 M260.750 29.494 C 240.720 29.586,239.002 29.615,238.000 29.888 C 237.404 30.051,236.057 30.366,235.006 30.589 C 233.505 30.907,232.915 31.117,232.256 31.568 C 231.794 31.883,230.904 32.385,230.277 32.682 C 229.650 32.979,229.028 33.390,228.894 33.595 C 228.760 33.799,228.349 34.166,227.982 34.409 C 226.759 35.218,223.933 38.306,223.212 39.619 C 222.972 40.058,222.573 40.679,222.326 41.000 C 221.787 41.702,221.287 42.678,221.003 43.583 C 220.888 43.950,220.578 44.750,220.314 45.361 C 218.282 50.062,218.206 60.426,220.170 64.833 C 220.436 65.429,220.887 66.537,221.173 67.295 C 221.459 68.053,221.865 68.878,222.074 69.128 C 222.284 69.378,222.646 69.958,222.880 70.417 C 223.832 72.283,227.575 76.198,229.483 77.323 C 229.959 77.604,230.551 78.021,230.799 78.251 C 231.063 78.496,232.045 78.938,233.166 79.316 C 234.221 79.672,235.496 80.116,236.000 80.302 C 238.030 81.051,238.224 81.057,262.416 81.121 C 289.905 81.194,286.799 81.451,290.023 78.837 C 291.896 77.319,292.667 73.939,291.625 71.817 C 290.741 70.017,290.326 69.546,288.080 67.793 C 287.089 67.019,286.490 67.000,263.293 67.000 C 238.797 67.000,241.065 67.118,238.827 65.732 C 237.269 64.768,235.927 63.100,235.288 61.333 C 234.105 58.061,234.471 50.691,235.914 48.750 C 236.118 48.475,236.442 47.950,236.633 47.583 C 236.824 47.217,237.504 46.448,238.144 45.876 C 239.998 44.216,237.984 44.339,263.524 44.336 C 287.180 44.333,287.406 44.325,287.911 43.510 C 287.961 43.429,288.519 43.022,289.150 42.606 C 293.815 39.533,292.815 32.348,287.445 30.355 C 286.910 30.157,286.273 29.891,286.028 29.765 C 285.332 29.406,283.778 29.390,260.750 29.494 M320.917 29.921 C 316.440 30.505,314.086 31.003,313.452 31.502 C 313.218 31.686,312.402 32.124,311.639 32.475 C 301.501 37.140,300.336 51.541,309.583 57.882 C 310.133 58.259,310.896 58.806,311.278 59.097 C 311.659 59.388,312.520 59.792,313.190 59.996 C 313.860 60.199,314.774 60.551,315.222 60.778 C 317.100 61.730,316.593 61.709,339.250 61.781 C 351.530 61.820,360.326 61.912,360.675 62.004 C 361.421 62.203,362.550 63.063,363.095 63.850 L 363.514 64.455 363.223 65.502 C 362.938 66.526,362.911 66.560,362.007 66.983 L 361.083 67.417 335.914 67.500 L 310.744 67.583 309.467 68.240 C 303.430 71.347,303.362 77.438,309.330 80.384 L 310.410 80.917 336.413 80.914 C 365.709 80.910,362.760 81.042,367.129 79.536 C 368.596 79.031,369.746 78.526,370.129 78.221 C 370.470 77.948,371.225 77.448,371.806 77.110 C 372.386 76.771,373.105 76.252,373.402 75.955 C 373.700 75.659,374.237 75.152,374.597 74.829 C 377.842 71.912,379.631 66.024,378.571 61.750 C 377.959 59.279,375.313 54.847,373.897 53.919 C 373.648 53.756,373.139 53.342,372.764 52.999 C 372.390 52.656,371.599 52.132,371.007 51.835 C 370.416 51.537,369.666 51.082,369.341 50.822 C 368.949 50.510,368.132 50.179,366.917 49.842 C 365.908 49.562,364.446 49.128,363.667 48.878 L 362.250 48.424 341.250 48.337 L 320.250 48.250 319.291 47.801 C 318.266 47.320,318.109 47.092,317.915 45.797 C 317.805 45.063,317.820 45.028,318.442 44.572 C 318.795 44.314,319.308 43.902,319.583 43.656 C 320.359 42.963,319.705 42.980,344.901 42.993 C 373.911 43.008,372.283 43.124,374.736 40.870 C 377.467 38.361,377.777 35.318,375.561 32.778 C 375.069 32.214,374.667 31.702,374.667 31.640 C 374.667 31.385,373.468 30.818,371.747 30.260 L 369.917 29.667 346.250 29.686 C 327.852 29.700,322.212 29.753,320.917 29.921 M286.488 30.329 C 293.418 32.557,293.538 41.004,286.677 43.667 C 285.772 44.018,285.751 44.018,264.677 44.009 C 239.146 43.997,239.788 43.959,238.098 45.559 C 237.648 45.985,237.230 46.333,237.168 46.333 C 236.943 46.333,235.304 49.033,235.014 49.880 C 233.780 53.490,234.097 60.636,235.583 62.696 C 235.802 63.001,236.218 63.626,236.507 64.086 C 237.178 65.156,239.447 66.696,240.910 67.076 C 241.781 67.302,244.590 67.334,263.743 67.336 C 288.006 67.339,287.165 67.302,288.333 68.393 C 288.654 68.692,289.190 69.137,289.525 69.381 C 292.235 71.359,292.327 76.536,289.690 78.670 C 289.356 78.940,288.760 79.422,288.365 79.742 C 287.056 80.802,288.446 80.741,264.167 80.800 C 237.958 80.862,239.085 80.913,234.697 79.465 C 232.516 78.745,231.422 78.293,230.911 77.904 C 230.516 77.602,229.955 77.232,229.665 77.082 C 228.140 76.294,223.934 71.849,223.043 70.084 C 222.812 69.626,222.454 69.050,222.249 68.805 C 222.044 68.560,221.668 67.772,221.413 67.055 C 221.158 66.337,220.732 65.241,220.466 64.619 C 218.775 60.664,218.568 51.187,220.080 47.000 C 220.296 46.404,220.727 45.204,221.040 44.333 C 221.682 42.541,221.828 42.244,222.585 41.178 C 222.882 40.759,223.258 40.154,223.421 39.833 C 224.311 38.076,228.942 33.589,230.680 32.800 C 231.192 32.568,231.997 32.111,232.470 31.786 C 232.943 31.461,233.686 31.119,234.123 31.026 C 235.277 30.780,239.332 30.027,239.917 29.949 C 240.192 29.913,250.435 29.872,262.681 29.858 L 284.944 29.833 286.488 30.329 M370.417 30.249 C 376.360 31.491,378.649 36.679,374.856 40.308 C 372.177 42.872,374.756 42.665,345.417 42.670 C 318.724 42.675,320.322 42.607,318.848 43.795 C 316.724 45.507,316.947 47.228,319.415 48.152 C 320.338 48.497,320.498 48.500,338.631 48.505 C 359.751 48.512,361.130 48.560,364.140 49.392 C 365.301 49.712,366.762 50.106,367.387 50.266 C 368.059 50.437,368.776 50.757,369.137 51.045 C 369.474 51.314,370.249 51.786,370.858 52.094 C 371.467 52.402,372.398 53.031,372.925 53.493 C 373.453 53.955,373.936 54.333,373.998 54.333 C 374.636 54.333,377.721 59.791,378.260 61.873 C 379.617 67.108,376.455 74.100,371.417 77.008 C 370.775 77.378,369.905 77.907,369.483 78.183 C 368.815 78.620,366.999 79.266,364.083 80.105 C 362.257 80.631,359.558 80.680,335.000 80.632 L 310.417 80.583 309.533 80.118 C 306.823 78.690,305.687 77.302,305.409 75.082 C 305.069 72.355,306.335 70.320,309.417 68.642 L 310.750 67.917 335.833 67.827 C 359.110 67.745,360.978 67.717,361.765 67.448 C 362.849 67.077,363.384 66.488,363.707 65.311 L 363.964 64.372 363.217 63.420 C 362.672 62.725,362.215 62.348,361.527 62.026 L 360.583 61.583 339.417 61.494 C 318.430 61.405,318.240 61.401,317.083 61.049 C 314.572 60.285,312.056 59.298,311.500 58.857 C 311.179 58.602,310.464 58.088,309.910 57.715 C 302.624 52.797,301.436 42.239,307.477 36.083 C 309.325 34.199,310.394 33.363,311.728 32.755 C 312.418 32.440,313.267 31.997,313.616 31.769 C 314.630 31.107,317.528 30.547,321.833 30.181 C 324.969 29.914,369.109 29.976,370.417 30.249 M40.129 42.008 C 37.915 43.140,37.548 45.275,39.105 47.960 C 39.331 48.351,39.703 49.168,39.932 49.775 C 40.316 50.796,41.992 54.426,42.614 55.583 C 42.761 55.858,43.220 56.721,43.634 57.500 C 44.048 58.279,44.624 59.217,44.915 59.583 C 45.206 59.950,45.658 60.625,45.918 61.083 C 46.588 62.264,49.179 64.777,50.230 65.266 C 51.806 66.000,54.777 65.708,55.676 64.730 C 55.900 64.487,56.378 64.072,56.738 63.807 C 57.523 63.231,58.854 61.672,59.348 60.750 C 59.544 60.383,59.991 59.708,60.341 59.249 C 60.691 58.790,61.287 57.777,61.664 56.999 C 62.041 56.220,62.529 55.246,62.748 54.833 C 63.576 53.273,65.305 49.557,65.500 48.917 C 65.612 48.550,65.873 47.950,66.079 47.583 C 67.777 44.569,66.884 42.311,63.697 41.561 C 62.957 41.387,60.423 41.340,52.083 41.344 L 41.417 41.350 40.129 42.008 M63.572 41.927 C 64.987 42.121,66.283 43.061,66.494 44.046 C 66.739 45.189,66.724 45.295,66.148 46.500 C 65.863 47.096,65.452 48.099,65.234 48.728 C 65.017 49.358,64.584 50.333,64.272 50.895 C 63.960 51.457,63.459 52.517,63.158 53.250 C 62.858 53.983,62.414 54.883,62.173 55.250 C 61.931 55.617,61.592 56.254,61.419 56.667 C 61.148 57.312,60.076 59.091,58.917 60.817 C 58.117 62.008,57.139 63.163,56.632 63.515 C 56.330 63.724,55.838 64.141,55.539 64.442 C 54.582 65.404,51.798 65.754,50.487 65.077 C 49.125 64.374,46.880 62.187,46.217 60.917 C 46.074 60.642,45.622 59.970,45.214 59.424 C 44.807 58.878,44.188 57.865,43.841 57.174 C 43.493 56.482,43.013 55.542,42.775 55.083 C 41.904 53.405,40.509 50.388,40.106 49.305 C 39.878 48.693,39.574 48.014,39.431 47.796 C 37.564 44.946,38.650 42.257,41.833 41.847 C 42.868 41.713,62.548 41.786,63.572 41.927 M245.963 50.011 C 242.466 50.534,239.850 54.963,241.649 57.315 C 241.902 57.646,242.320 58.207,242.578 58.562 C 243.980 60.488,244.136 60.501,265.667 60.495 C 288.841 60.488,287.605 60.646,290.121 57.378 C 291.719 55.301,289.878 51.403,286.744 50.227 C 285.837 49.887,248.128 49.687,245.963 50.011 M286.500 50.485 C 289.504 51.626,291.274 55.270,289.777 57.229 C 287.394 60.345,288.910 60.159,265.847 60.163 C 243.070 60.167,244.083 60.283,242.186 57.463 C 240.706 55.262,241.650 52.657,244.638 50.699 C 245.358 50.227,246.136 50.209,266.040 50.188 C 284.976 50.167,285.692 50.178,286.500 50.485 " stroke="none" fill="transparent" fill-rule="evenodd"></path><path id="path4" d="M105.332 6.308 C 104.919 6.371,104.319 6.579,103.999 6.770 C 103.679 6.961,102.795 7.363,102.035 7.663 C 100.871 8.124,100.577 8.320,100.172 8.909 C 99.907 9.294,99.440 9.800,99.133 10.034 C 98.036 10.871,97.537 13.415,98.020 15.700 C 98.342 17.220,99.166 18.377,100.810 19.618 C 101.327 20.009,101.938 20.476,102.167 20.657 C 103.806 21.950,111.375 21.583,112.249 20.168 C 112.307 20.074,112.875 19.582,113.511 19.074 C 115.623 17.390,116.334 14.737,115.458 11.811 C 114.990 10.246,113.243 8.188,112.013 7.755 C 111.617 7.615,110.721 7.244,110.022 6.930 C 108.652 6.314,106.853 6.076,105.332 6.308 M107.750 7.078 C 108.805 7.324,112.516 8.461,112.627 8.572 C 112.663 8.608,112.825 8.888,112.986 9.194 C 113.148 9.500,113.554 9.931,113.890 10.153 C 114.572 10.603,114.750 11.053,115.000 12.956 C 115.383 15.876,114.756 17.381,112.445 19.088 C 112.094 19.347,111.558 19.809,111.254 20.113 C 110.949 20.418,110.561 20.670,110.392 20.675 C 110.222 20.679,109.333 20.745,108.417 20.821 C 105.154 21.091,102.817 20.705,101.986 19.760 C 101.700 19.434,101.393 19.167,101.305 19.167 C 101.036 19.167,100.000 18.308,100.000 18.085 C 100.000 17.970,99.709 17.557,99.353 17.168 C 97.826 15.497,98.051 12.091,99.812 10.250 C 100.250 9.792,100.725 9.229,100.867 9.000 C 101.115 8.601,101.329 8.503,103.917 7.601 C 104.775 7.302,106.289 6.880,106.583 6.858 C 106.675 6.851,107.200 6.950,107.750 7.078 M134.105 13.098 C 132.148 13.633,131.238 14.051,130.996 14.526 C 130.887 14.741,130.439 15.254,130.000 15.667 C 128.460 17.116,128.590 14.417,128.538 45.971 C 128.483 79.773,128.217 76.899,131.645 79.456 C 133.641 80.945,131.311 80.831,159.929 80.832 C 188.773 80.833,188.045 80.859,191.583 79.722 C 195.044 78.610,195.256 78.525,195.948 77.973 C 196.297 77.695,196.931 77.289,197.357 77.073 C 198.100 76.695,202.167 72.836,202.167 72.508 C 202.167 72.423,202.469 72.004,202.839 71.577 C 203.209 71.150,203.706 70.414,203.945 69.942 C 204.183 69.470,204.587 68.779,204.842 68.406 C 205.097 68.034,205.611 66.814,205.984 65.694 C 206.357 64.575,206.771 63.449,206.903 63.192 C 208.164 60.755,208.214 51.276,206.985 47.846 C 206.802 47.335,206.357 46.033,205.997 44.954 C 205.637 43.874,205.128 42.674,204.864 42.287 C 204.601 41.900,204.098 41.032,203.747 40.359 C 203.396 39.685,203.006 39.095,202.882 39.047 C 202.757 38.999,202.418 38.613,202.129 38.188 C 201.625 37.449,199.805 35.613,197.956 33.978 C 197.476 33.554,196.671 33.003,196.167 32.753 C 195.662 32.504,194.860 32.035,194.382 31.711 C 193.636 31.204,193.124 31.039,190.716 30.533 L 187.917 29.944 172.333 29.847 L 156.750 29.750 154.833 30.388 C 153.233 30.921,152.827 31.127,152.374 31.638 C 152.075 31.975,151.526 32.561,151.153 32.941 C 149.854 34.266,149.360 37.907,150.164 40.241 C 150.629 41.594,152.698 43.675,154.108 44.209 L 155.083 44.578 171.000 44.664 C 183.330 44.731,187.011 44.797,187.333 44.960 C 189.593 46.099,191.872 49.242,192.363 51.895 C 192.960 55.119,192.507 59.698,191.424 61.397 C 191.124 61.866,190.826 62.421,190.761 62.629 C 190.410 63.746,188.255 65.500,186.940 65.738 C 185.838 65.939,146.105 65.874,145.350 65.671 C 143.441 65.157,143.495 65.876,143.501 41.000 C 143.506 18.210,143.565 19.834,142.630 17.165 C 142.181 15.884,142.055 15.705,140.748 14.489 C 139.724 13.538,139.053 13.273,136.750 12.909 C 136.383 12.852,135.971 12.779,135.833 12.749 C 135.696 12.719,134.918 12.876,134.105 13.098 M137.774 13.731 L 139.465 13.954 140.649 15.126 L 141.833 16.298 142.250 18.431 L 142.667 20.564 142.667 41.563 C 142.667 61.700,142.679 62.589,142.977 63.239 C 143.148 63.612,143.414 64.264,143.567 64.688 C 144.321 66.776,143.129 66.671,166.360 66.684 C 178.012 66.690,186.094 66.632,186.276 66.541 C 186.445 66.457,187.007 66.297,187.526 66.185 C 189.078 65.852,190.306 64.866,191.078 63.333 C 191.239 63.012,191.546 62.563,191.760 62.333 C 193.713 60.241,193.680 50.496,191.713 48.371 C 191.397 48.029,190.957 47.395,190.735 46.962 C 190.492 46.488,190.125 46.068,189.813 45.906 C 189.528 45.759,188.963 45.332,188.558 44.958 C 187.512 43.995,188.006 44.021,170.822 44.010 C 152.669 43.998,154.304 44.166,152.292 42.113 C 150.512 40.296,150.342 39.897,150.337 37.543 C 150.332 35.242,150.645 34.252,151.649 33.393 C 152.015 33.079,152.409 32.565,152.522 32.251 C 152.753 31.614,153.700 31.237,156.083 30.833 C 157.954 30.517,187.254 30.702,189.917 31.047 C 192.801 31.421,193.302 31.562,193.810 32.143 C 194.073 32.443,194.765 32.855,195.530 33.167 C 196.463 33.547,196.933 33.849,197.262 34.281 C 197.511 34.606,198.034 35.014,198.424 35.187 C 198.917 35.405,199.234 35.693,199.457 36.126 C 199.638 36.476,200.055 36.906,200.408 37.105 C 200.796 37.325,201.149 37.706,201.333 38.105 C 201.496 38.460,202.014 39.198,202.483 39.745 C 202.958 40.298,203.489 41.148,203.680 41.661 C 203.869 42.168,204.200 42.771,204.417 43.000 C 204.879 43.490,205.340 44.728,205.749 46.583 C 205.911 47.317,206.211 48.254,206.416 48.667 C 207.612 51.070,207.623 59.363,206.434 62.034 C 206.201 62.557,205.854 63.607,205.663 64.367 C 205.043 66.827,204.994 66.982,204.772 67.205 C 204.380 67.596,203.644 68.854,203.397 69.557 C 203.263 69.934,202.857 70.528,202.494 70.878 C 202.131 71.227,201.833 71.630,201.833 71.773 C 201.833 72.023,200.778 73.223,199.450 74.483 C 199.101 74.813,198.448 75.433,197.998 75.860 C 197.548 76.288,196.944 76.689,196.655 76.753 C 196.366 76.816,195.856 77.112,195.523 77.410 C 194.844 78.017,193.502 78.563,192.250 78.742 C 191.792 78.807,190.659 79.113,189.734 79.421 C 187.076 80.306,186.143 80.333,159.333 80.320 C 133.330 80.308,133.765 80.321,132.955 79.540 C 132.659 79.254,132.222 78.947,131.985 78.858 C 131.546 78.693,129.904 76.927,129.481 76.167 C 129.287 75.817,129.242 71.178,129.200 47.167 C 129.144 14.668,129.036 17.251,130.500 16.016 C 130.931 15.653,131.375 15.135,131.487 14.865 C 131.751 14.227,133.569 13.646,135.667 13.530 C 135.896 13.518,136.844 13.608,137.774 13.731 M104.706 28.997 C 102.675 29.478,100.163 32.295,99.724 34.583 C 99.356 36.501,99.399 75.068,99.770 76.717 C 100.820 81.376,105.861 83.655,110.117 81.395 C 112.619 80.067,113.012 79.606,113.960 76.891 L 114.417 75.583 114.462 55.781 L 114.508 35.979 114.100 34.698 C 113.436 32.613,112.909 31.575,112.302 31.160 C 111.998 30.952,111.449 30.495,111.082 30.146 C 109.880 29.001,106.929 28.469,104.706 28.997 M27.631 29.232 C 27.198 29.350,26.411 29.711,25.881 30.036 C 25.350 30.360,24.617 30.782,24.250 30.972 C 21.821 32.232,19.464 36.674,19.485 39.950 C 19.502 42.351,19.955 43.605,23.094 49.919 C 24.142 52.029,25.000 53.828,25.000 53.917 C 25.000 54.098,26.783 57.839,27.423 59.000 C 27.651 59.413,28.170 60.447,28.578 61.298 C 28.986 62.150,29.484 63.077,29.685 63.359 C 29.886 63.641,30.362 64.482,30.743 65.228 C 31.905 67.501,34.857 72.185,35.774 73.209 C 36.081 73.553,36.333 73.913,36.333 74.009 C 36.333 74.797,40.696 78.458,43.015 79.617 C 48.146 82.181,57.722 82.346,61.417 79.935 C 61.875 79.636,62.688 79.192,63.222 78.948 C 65.320 77.993,67.789 75.443,70.432 71.500 C 70.770 70.996,71.411 70.041,71.857 69.377 C 72.302 68.714,72.667 68.098,72.667 68.009 C 72.667 67.919,73.081 67.238,73.587 66.494 C 74.093 65.751,74.725 64.663,74.990 64.078 C 75.256 63.492,75.660 62.766,75.889 62.465 C 76.118 62.163,76.511 61.392,76.764 60.750 C 77.017 60.108,77.439 59.265,77.702 58.877 C 77.965 58.488,78.371 57.663,78.603 57.043 C 78.836 56.424,79.322 55.379,79.684 54.721 C 80.046 54.064,80.492 53.089,80.676 52.555 C 80.859 52.020,81.258 51.208,81.561 50.750 C 81.865 50.292,82.279 49.471,82.483 48.926 C 82.686 48.381,83.117 47.508,83.439 46.986 C 86.345 42.277,86.119 36.441,82.894 32.949 C 82.402 32.417,82.000 31.917,82.000 31.838 C 82.000 31.701,79.841 30.419,78.084 29.513 L 77.251 29.083 52.834 29.051 C 33.444 29.026,28.255 29.063,27.631 29.232 M108.910 29.498 C 109.148 29.588,109.794 30.038,110.347 30.498 C 110.900 30.958,111.562 31.443,111.819 31.576 C 112.390 31.871,112.960 33.113,113.275 34.750 C 113.628 36.581,113.601 74.116,113.246 76.308 C 112.762 79.290,111.624 80.336,107.667 81.433 L 106.750 81.688 104.616 80.988 C 102.995 80.456,102.413 80.188,102.199 79.875 C 102.044 79.648,101.627 79.135,101.273 78.734 C 100.137 77.448,100.167 78.078,100.167 55.715 C 100.167 31.384,99.973 33.141,102.897 30.941 C 103.366 30.588,103.814 30.188,103.892 30.051 C 104.258 29.410,107.685 29.032,108.910 29.498 M76.917 29.687 C 77.283 29.789,77.821 30.080,78.111 30.335 C 78.401 30.590,78.926 30.892,79.277 31.008 C 80.288 31.339,82.660 33.346,82.665 33.875 C 82.666 33.943,82.938 34.299,83.269 34.666 C 83.892 35.355,84.292 36.770,84.595 39.352 C 84.792 41.032,83.945 45.100,83.255 45.790 C 82.785 46.260,82.274 47.310,81.987 48.392 C 81.887 48.772,81.632 49.271,81.421 49.500 C 80.905 50.060,80.392 51.111,80.152 52.103 C 80.044 52.550,79.786 53.104,79.579 53.333 C 79.056 53.913,78.543 54.985,78.250 56.110 C 78.114 56.634,77.822 57.255,77.603 57.490 C 77.091 58.037,76.613 59.005,76.275 60.179 C 76.128 60.690,75.848 61.252,75.652 61.429 C 75.229 61.811,74.421 63.368,74.260 64.113 C 74.197 64.404,73.973 64.755,73.762 64.894 C 73.551 65.032,73.033 65.814,72.611 66.631 C 72.188 67.449,71.722 68.218,71.574 68.341 C 71.426 68.464,71.055 69.060,70.750 69.667 C 70.445 70.273,70.063 70.877,69.902 71.010 C 69.741 71.142,69.269 71.775,68.853 72.417 C 68.437 73.058,67.822 73.883,67.487 74.250 C 67.152 74.617,66.754 75.160,66.602 75.457 C 66.451 75.754,66.047 76.141,65.705 76.317 C 65.363 76.493,64.821 76.913,64.500 77.250 C 63.919 77.861,62.558 78.667,62.108 78.667 C 61.978 78.667,61.424 78.965,60.877 79.330 C 57.982 81.264,46.781 81.395,44.365 79.524 C 44.027 79.262,43.225 78.836,42.583 78.578 C 41.861 78.287,41.194 77.875,40.833 77.496 C 40.512 77.159,40.006 76.758,39.707 76.604 C 39.409 76.450,38.979 76.029,38.751 75.668 C 38.524 75.308,38.104 74.841,37.818 74.631 C 37.533 74.422,37.127 73.912,36.916 73.500 C 36.705 73.087,36.331 72.563,36.084 72.333 C 35.837 72.104,35.329 71.392,34.955 70.750 C 34.581 70.108,34.105 69.396,33.898 69.167 C 33.691 68.938,33.363 68.379,33.169 67.925 C 32.975 67.471,32.548 66.726,32.220 66.269 C 31.892 65.813,31.345 64.834,31.005 64.094 C 30.664 63.355,30.277 62.660,30.144 62.550 C 29.911 62.357,29.250 61.014,28.818 59.853 C 28.702 59.543,28.435 59.084,28.224 58.833 C 27.875 58.418,26.833 56.076,26.833 55.706 C 26.833 55.620,26.616 55.250,26.350 54.883 C 26.084 54.515,25.668 53.660,25.426 52.983 C 25.184 52.305,24.719 51.314,24.393 50.782 C 24.068 50.250,23.621 49.354,23.400 48.792 C 23.180 48.230,22.709 47.278,22.353 46.677 C 21.768 45.687,21.431 44.779,20.614 42.000 C 19.888 39.529,21.080 34.679,22.721 33.427 C 23.029 33.193,23.424 32.733,23.599 32.407 C 23.855 31.928,24.192 31.683,25.330 31.149 C 26.108 30.784,26.909 30.330,27.111 30.141 C 27.313 29.951,27.727 29.737,28.031 29.665 C 28.944 29.449,76.135 29.470,76.917 29.687 M239.917 29.949 C 239.332 30.027,235.277 30.780,234.123 31.026 C 233.686 31.119,232.943 31.461,232.470 31.786 C 231.997 32.111,231.192 32.568,230.680 32.800 C 228.942 33.589,224.311 38.076,223.421 39.833 C 223.258 40.154,222.882 40.759,222.585 41.178 C 221.828 42.244,221.682 42.541,221.040 44.333 C 220.727 45.204,220.296 46.404,220.080 47.000 C 218.568 51.187,218.775 60.664,220.466 64.619 C 220.732 65.241,221.158 66.337,221.413 67.055 C 221.668 67.772,222.044 68.560,222.249 68.805 C 222.454 69.050,222.812 69.626,223.043 70.084 C 223.934 71.849,228.140 76.294,229.665 77.082 C 229.955 77.232,230.516 77.602,230.911 77.904 C 231.422 78.293,232.516 78.745,234.697 79.465 C 239.085 80.913,237.958 80.862,264.167 80.800 C 288.446 80.741,287.056 80.802,288.365 79.742 C 288.760 79.422,289.356 78.940,289.690 78.670 C 292.327 76.536,292.235 71.359,289.525 69.381 C 289.190 69.137,288.654 68.692,288.333 68.393 C 287.165 67.302,288.006 67.339,263.743 67.336 C 244.590 67.334,241.781 67.302,240.910 67.076 C 239.447 66.696,237.178 65.156,236.507 64.086 C 236.218 63.626,235.802 63.001,235.583 62.696 C 234.097 60.636,233.780 53.490,235.014 49.880 C 235.304 49.033,236.943 46.333,237.168 46.333 C 237.230 46.333,237.648 45.985,238.098 45.559 C 239.788 43.959,239.146 43.997,264.677 44.009 C 285.751 44.018,285.772 44.018,286.677 43.667 C 293.538 41.004,293.418 32.557,286.488 30.329 L 284.944 29.833 262.681 29.858 C 250.435 29.872,240.192 29.913,239.917 29.949 M321.833 30.181 C 317.528 30.547,314.630 31.107,313.616 31.769 C 313.267 31.997,312.418 32.440,311.728 32.755 C 310.394 33.363,309.325 34.199,307.477 36.083 C 301.436 42.239,302.624 52.797,309.910 57.715 C 310.464 58.088,311.179 58.602,311.500 58.857 C 312.056 59.298,314.572 60.285,317.083 61.049 C 318.240 61.401,318.430 61.405,339.417 61.494 L 360.583 61.583 361.527 62.026 C 362.215 62.348,362.672 62.725,363.217 63.420 L 363.964 64.372 363.707 65.311 C 363.384 66.488,362.849 67.077,361.765 67.448 C 360.978 67.717,359.110 67.745,335.833 67.827 L 310.750 67.917 309.417 68.642 C 306.335 70.320,305.069 72.355,305.409 75.082 C 305.687 77.302,306.823 78.690,309.533 80.118 L 310.417 80.583 335.000 80.632 C 359.558 80.680,362.257 80.631,364.083 80.105 C 366.999 79.266,368.815 78.620,369.483 78.183 C 369.905 77.907,370.775 77.378,371.417 77.008 C 376.455 74.100,379.617 67.108,378.260 61.873 C 377.721 59.791,374.636 54.333,373.998 54.333 C 373.936 54.333,373.453 53.955,372.925 53.493 C 372.398 53.031,371.467 52.402,370.858 52.094 C 370.249 51.786,369.474 51.314,369.137 51.045 C 368.776 50.757,368.059 50.437,367.387 50.266 C 366.762 50.106,365.301 49.712,364.140 49.392 C 361.130 48.560,359.751 48.512,338.631 48.505 C 320.498 48.500,320.338 48.497,319.415 48.152 C 316.947 47.228,316.724 45.507,318.848 43.795 C 320.322 42.607,318.724 42.675,345.417 42.670 C 371.861 42.666,371.827 42.667,373.155 41.769 C 378.856 37.915,377.380 31.704,370.417 30.249 C 369.109 29.976,324.969 29.914,321.833 30.181 M286.333 30.969 C 286.746 31.079,287.263 31.210,287.482 31.261 C 288.329 31.454,290.056 33.495,290.371 34.674 C 291.280 38.078,290.550 40.621,288.290 41.917 C 287.651 42.283,286.855 42.771,286.522 43.000 L 285.917 43.417 263.250 43.510 C 237.730 43.616,239.151 43.537,237.667 44.935 C 237.346 45.237,236.858 45.698,236.583 45.958 C 236.308 46.218,235.952 46.653,235.791 46.924 C 235.631 47.195,235.313 47.670,235.085 47.980 C 234.585 48.659,234.488 48.985,233.746 52.473 C 233.033 55.824,233.033 55.783,233.758 59.069 C 234.534 62.584,234.611 62.814,235.243 63.500 C 235.538 63.821,235.980 64.435,236.224 64.864 C 236.468 65.293,236.820 65.693,237.005 65.752 C 237.191 65.811,237.760 66.223,238.269 66.669 C 239.760 67.974,238.215 67.892,262.250 67.939 C 288.400 67.991,287.094 67.940,287.746 68.935 C 287.885 69.145,288.326 69.510,288.728 69.746 C 291.155 71.168,291.320 77.243,288.961 78.363 C 288.637 78.517,288.102 78.880,287.772 79.170 C 286.354 80.415,287.981 80.333,264.448 80.333 C 242.377 80.333,239.704 80.263,238.000 79.637 C 237.496 79.452,236.108 79.053,234.917 78.750 C 232.298 78.086,232.010 77.977,231.583 77.496 C 231.400 77.289,230.882 76.947,230.432 76.737 C 229.982 76.527,229.307 76.057,228.932 75.693 C 226.597 73.425,225.583 72.361,225.241 71.818 C 225.027 71.480,224.628 71.043,224.355 70.849 C 224.043 70.627,223.761 70.201,223.596 69.705 C 223.451 69.270,223.027 68.445,222.653 67.872 C 222.170 67.133,221.855 66.368,221.569 65.243 C 221.348 64.371,220.939 63.207,220.661 62.656 C 219.642 60.636,219.451 49.927,220.409 48.448 C 220.782 47.872,221.292 46.380,221.675 44.750 C 221.935 43.639,222.148 43.120,222.496 42.750 C 222.755 42.475,223.240 41.700,223.575 41.028 C 223.910 40.357,224.470 39.494,224.819 39.112 C 225.168 38.729,225.566 38.199,225.704 37.932 C 225.841 37.666,226.239 37.253,226.587 37.016 C 226.936 36.778,227.340 36.344,227.486 36.051 C 227.645 35.731,228.003 35.404,228.387 35.229 C 228.737 35.070,229.262 34.660,229.553 34.318 C 229.932 33.875,230.502 33.519,231.547 33.076 C 232.352 32.735,233.150 32.279,233.320 32.063 C 233.800 31.452,237.083 30.930,241.417 30.775 C 245.884 30.616,285.654 30.787,286.333 30.969 M371.000 31.061 C 374.230 31.631,377.007 35.879,375.519 37.974 C 375.346 38.218,375.089 38.694,374.948 39.033 C 374.788 39.416,374.376 39.876,373.862 40.246 C 373.406 40.573,372.989 40.955,372.935 41.095 C 372.610 41.944,373.616 41.910,345.833 42.000 C 325.377 42.066,319.984 42.127,319.599 42.297 C 319.030 42.549,316.896 44.405,316.653 44.860 C 316.139 45.819,317.236 48.110,318.390 48.491 C 320.691 49.251,320.134 49.229,340.500 49.331 L 359.750 49.428 363.248 50.050 C 367.581 50.821,367.674 50.848,368.462 51.509 C 368.815 51.806,369.421 52.172,369.807 52.323 C 370.470 52.582,371.076 53.005,373.050 54.583 C 373.508 54.950,374.206 55.737,374.601 56.333 C 374.996 56.929,375.469 57.612,375.653 57.852 C 376.014 58.322,377.433 61.998,377.672 63.083 C 378.143 65.221,376.989 69.933,375.510 71.910 C 375.233 72.280,374.802 72.928,374.552 73.349 C 374.298 73.778,373.821 74.275,373.468 74.478 C 373.121 74.677,372.668 75.072,372.461 75.355 C 372.245 75.648,371.548 76.138,370.833 76.499 C 370.146 76.846,369.434 77.296,369.250 77.499 C 368.731 78.074,368.237 78.263,366.000 78.744 C 364.854 78.991,363.429 79.341,362.833 79.522 C 361.045 80.066,356.985 80.156,334.083 80.158 C 312.915 80.160,310.755 80.110,310.191 79.610 C 310.040 79.476,309.429 79.111,308.833 78.799 C 306.709 77.687,305.784 75.443,306.426 72.965 C 306.579 72.373,306.830 71.834,307.011 71.707 C 307.186 71.585,307.519 71.159,307.752 70.762 C 308.123 70.129,308.336 69.975,309.463 69.529 C 311.752 68.622,310.681 68.659,336.250 68.610 C 365.561 68.554,363.118 68.840,364.662 65.283 C 365.054 64.382,365.086 64.476,363.872 62.965 C 363.142 62.057,362.797 61.776,362.029 61.465 L 361.083 61.083 340.167 60.982 C 325.904 60.912,319.038 60.822,318.583 60.698 C 318.217 60.598,317.242 60.290,316.417 60.014 C 315.592 59.737,314.354 59.357,313.667 59.169 C 312.767 58.923,312.285 58.688,311.948 58.329 C 311.691 58.054,311.169 57.671,310.789 57.477 C 310.130 57.141,308.172 55.256,307.064 53.890 C 305.244 51.647,304.085 47.168,304.514 44.041 C 304.804 41.937,306.210 38.627,307.329 37.417 C 307.668 37.050,308.112 36.525,308.316 36.250 C 308.520 35.975,308.976 35.525,309.329 35.250 C 309.683 34.975,310.351 34.438,310.815 34.057 C 311.318 33.643,312.101 33.216,312.752 32.999 C 313.353 32.799,314.068 32.448,314.342 32.217 C 315.202 31.494,317.118 31.171,321.917 30.944 C 325.829 30.758,369.881 30.863,371.000 31.061 M41.000 40.617 C 40.862 40.670,40.526 40.872,40.252 41.065 C 39.978 41.259,39.482 41.540,39.149 41.690 C 37.089 42.622,36.966 45.842,38.853 49.470 C 39.300 50.331,39.667 51.109,39.667 51.198 C 39.667 51.506,40.705 53.750,41.078 54.250 C 41.284 54.525,41.510 54.938,41.581 55.167 C 41.932 56.299,42.767 57.821,44.121 59.798 C 44.417 60.230,44.942 61.032,45.288 61.581 C 46.070 62.823,48.510 65.223,49.462 65.687 C 51.631 66.743,55.165 66.357,56.667 64.900 C 56.987 64.589,57.512 64.089,57.833 63.789 C 58.855 62.835,59.690 61.773,60.027 61.000 C 60.206 60.587,60.602 59.987,60.907 59.667 C 61.211 59.346,61.672 58.596,61.931 58.000 C 62.191 57.404,62.603 56.654,62.848 56.333 C 63.093 56.012,63.499 55.188,63.751 54.500 C 64.002 53.813,64.456 52.875,64.759 52.417 C 65.061 51.958,65.499 50.972,65.730 50.224 C 65.962 49.477,66.387 48.531,66.674 48.123 C 68.180 45.987,67.845 43.020,65.957 41.759 C 65.477 41.437,64.900 41.042,64.676 40.879 C 64.269 40.583,41.728 40.334,41.000 40.617 M63.697 41.561 C 66.884 42.311,67.777 44.569,66.079 47.583 C 65.873 47.950,65.612 48.550,65.500 48.917 C 65.305 49.557,63.576 53.273,62.748 54.833 C 62.529 55.246,62.041 56.220,61.664 56.999 C 61.287 57.777,60.691 58.790,60.341 59.249 C 59.991 59.708,59.544 60.383,59.348 60.750 C 58.854 61.672,57.523 63.231,56.738 63.807 C 56.378 64.072,55.900 64.487,55.676 64.730 C 54.777 65.708,51.806 66.000,50.230 65.266 C 49.179 64.777,46.588 62.264,45.918 61.083 C 45.658 60.625,45.206 59.950,44.915 59.583 C 44.624 59.217,44.048 58.279,43.634 57.500 C 43.220 56.721,42.761 55.858,42.614 55.583 C 41.992 54.426,40.316 50.796,39.932 49.775 C 39.703 49.168,39.331 48.351,39.105 47.960 C 37.548 45.275,37.915 43.140,40.129 42.008 L 41.417 41.350 52.083 41.344 C 60.423 41.340,62.957 41.387,63.697 41.561 M245.730 50.321 C 243.566 50.675,241.128 53.815,241.491 55.779 C 241.777 57.323,243.061 58.958,244.396 59.477 C 246.107 60.144,246.835 60.167,265.847 60.163 C 288.910 60.159,287.394 60.345,289.777 57.229 C 291.274 55.270,289.504 51.626,286.500 50.485 C 285.642 50.159,247.653 50.006,245.730 50.321 M286.667 51.328 C 287.933 52.305,288.514 52.889,288.890 53.564 C 289.088 53.920,289.332 54.353,289.433 54.525 C 289.764 55.091,289.424 56.443,288.767 57.169 C 288.447 57.524,288.070 58.037,287.929 58.310 C 287.346 59.436,288.108 59.395,266.833 59.459 C 243.301 59.530,244.648 59.661,242.862 57.135 C 241.975 55.881,242.531 53.195,243.852 52.357 C 244.266 52.095,244.756 51.672,244.941 51.418 C 245.465 50.699,245.381 50.702,266.250 50.726 L 285.917 50.750 286.667 51.328 " stroke="none" fill="transparent" fill-rule="evenodd"></path></g></svg>